M48
; DRILL file {KiCad 9.0.3} date 2026-02-04T16:51:22-0500
; FORMAT={-:-/ absolute / metric / decimal}
; #@! TF.CreationDate,2026-02-04T16:51:22-05:00
; #@! TF.GenerationSoftware,Kicad,Pcbnew,9.0.3
; #@! TF.FileFunction,Plated,1,2,PTH
FMAT,2
METRIC
; #@! TA.AperFunction,Plated,PTH,ViaDrill
T1C0.300
; #@! TA.AperFunction,Plated,PTH,ViaDrill
T2C0.500
; #@! TA.AperFunction,Plated,PTH,ComponentDrill
T3C0.500
; #@! TA.AperFunction,Plated,PTH,ComponentDrill
T4C0.750
; #@! TA.AperFunction,Plated,PTH,ComponentDrill
T5C0.800
; #@! TA.AperFunction,Plated,PTH,ViaDrill
T6C1.000
; #@! TA.AperFunction,Plated,PTH,ComponentDrill
T7C1.000
; #@! TA.AperFunction,Plated,PTH,ComponentDrill
T8C1.100
; #@! TA.AperFunction,Plated,PTH,ComponentDrill
T9C1.320
; #@! TA.AperFunction,Plated,PTH,ComponentDrill
T10C2.700
; #@! TA.AperFunction,Plated,PTH,ComponentDrill
T11C4.500
%
G90
G05
T1
X156.972Y-91.012
X156.972Y-93.552
X156.972Y-96.092
X156.972Y-98.632
X157.48Y-47.832
X157.48Y-50.372
X157.48Y-55.452
X157.48Y-57.992
X157.48Y-63.58
X157.48Y-66.12
X157.48Y-68.66
X157.48Y-71.2
X157.48Y-81.36
X157.48Y-83.9
X157.48Y-86.44
X157.48Y-104.22
X157.48Y-106.76
X157.48Y-109.3
X174.752Y-49.864
X179.832Y-57.992
X184.15Y-110.57
X184.404Y-82.884
X184.404Y-84.408
X184.404Y-86.948
X185.674Y-106.252
X185.928Y-63.58
X185.928Y-66.12
X185.928Y-68.66
X185.928Y-71.708
X185.928Y-74.248
X185.928Y-76.788
X185.928Y-82.884
X185.928Y-84.408
X187.452Y-55.96
X187.452Y-58.5
X187.452Y-61.04
X187.452Y-82.884
X187.452Y-84.408
X187.452Y-106.252
X187.96Y-114.634
X188.976Y-50.372
X188.976Y-52.404
X188.976Y-74.248
X188.976Y-76.026
X188.976Y-77.804
X189.992Y-68.66
X189.992Y-94.06
X192.532Y-50.88
X192.532Y-53.42
X192.532Y-55.96
X192.532Y-58.5
X192.532Y-61.04
X192.532Y-63.58
X192.532Y-66.12
X192.532Y-76.28
X192.532Y-78.82
X192.532Y-81.36
X192.532Y-83.9
X192.532Y-86.44
X192.532Y-88.98
X192.532Y-99.14
X192.532Y-101.68
X192.532Y-104.22
X192.532Y-106.76
X192.532Y-109.3
X192.532Y-111.84
X192.532Y-114.634
X195.072Y-50.372
X196.342Y-114.634
X197.612Y-50.372
X200.152Y-50.372
X200.152Y-52.912
X200.152Y-55.452
X200.152Y-57.992
X200.152Y-61.04
X200.152Y-63.58
X200.152Y-66.12
X200.152Y-68.66
X200.152Y-71.2
X200.152Y-73.74
X200.152Y-76.28
X200.152Y-78.82
X200.152Y-81.36
X200.152Y-83.9
X200.152Y-86.44
X200.152Y-88.98
X200.152Y-91.52
X200.152Y-94.06
X200.152Y-96.6
X200.152Y-99.14
X200.152Y-101.68
X200.152Y-104.22
X200.152Y-106.76
X200.152Y-109.3
X200.152Y-111.84
X200.152Y-114.38
X200.152Y-116.666
X201.422Y-63.58
X201.422Y-87.456
X201.422Y-111.332
T2
X161.544Y-64.596
X162.56Y-40.974
X162.56Y-42.244
X162.56Y-43.514
X162.56Y-44.784
X162.56Y-46.054
X162.56Y-47.324
X162.56Y-64.596
X163.576Y-64.596
X164.084Y-40.974
X164.084Y-42.244
X164.084Y-43.514
X164.084Y-44.784
X164.084Y-46.054
X164.084Y-47.324
X164.592Y-61.548
X164.592Y-62.564
X164.592Y-63.58
X164.592Y-64.596
X165.608Y-40.974
X165.608Y-42.244
X165.608Y-43.514
X165.608Y-44.784
X165.608Y-46.054
X165.608Y-47.324
X175.26Y-61.548
X175.26Y-62.564
X175.26Y-63.58
X175.26Y-64.596
X176.276Y-64.596
X177.292Y-64.596
X178.308Y-64.596
X207.772Y-40.974
X207.772Y-42.244
X207.772Y-43.514
X207.772Y-44.784
X208.788Y-40.974
X208.788Y-42.244
X208.788Y-43.514
X208.788Y-44.784
X209.804Y-40.974
X209.804Y-42.244
X209.804Y-43.514
X209.804Y-44.784
X213.868Y-62.056
X213.868Y-66.12
X213.868Y-85.932
X213.868Y-89.996
X213.868Y-109.808
X213.868Y-113.872
X215.138Y-62.056
X215.138Y-66.12
X215.138Y-85.932
X215.138Y-89.996
X215.138Y-109.808
X215.138Y-113.872
X216.408Y-62.056
X216.408Y-66.12
X216.408Y-85.932
X216.408Y-89.996
X216.408Y-109.808
X216.408Y-113.872
X217.678Y-62.056
X217.678Y-66.12
X217.678Y-85.932
X217.678Y-89.996
X217.678Y-109.808
X217.678Y-113.872
T3
X156.255Y-42.616
X156.255Y-120.616
X156.848Y-41.184
X156.848Y-44.048
X156.848Y-119.184
X156.848Y-122.048
X158.28Y-40.591
X158.28Y-44.641
X158.28Y-118.591
X158.28Y-122.641
X159.712Y-41.184
X159.712Y-44.048
X159.712Y-119.184
X159.712Y-122.048
X160.305Y-42.616
X160.305Y-120.616
X186.255Y-42.616
X186.255Y-120.616
X186.848Y-41.184
X186.848Y-44.048
X186.848Y-119.184
X186.848Y-122.048
X188.28Y-40.591
X188.28Y-44.641
X188.28Y-118.591
X188.28Y-122.641
X189.712Y-41.184
X189.712Y-44.048
X189.712Y-119.184
X189.712Y-122.048
X190.305Y-42.616
X190.305Y-120.616
X212.255Y-42.616
X212.255Y-120.616
X212.848Y-41.184
X212.848Y-44.048
X212.848Y-119.184
X212.848Y-122.048
X214.28Y-40.591
X214.28Y-44.641
X214.28Y-118.591
X214.28Y-122.641
X215.712Y-41.184
X215.712Y-44.048
X215.712Y-119.184
X215.712Y-122.048
X216.305Y-42.616
X216.305Y-120.616
T4
X157.438Y-73.264
X157.438Y-75.264
X157.438Y-77.264
X157.438Y-79.264
X194.168Y-121.788
X196.168Y-121.788
X198.168Y-121.788
X200.168Y-121.788
X202.168Y-121.788
X204.168Y-121.788
X206.168Y-121.788
X208.168Y-121.788
T5
X211.767Y-64.088
X211.767Y-87.964
X211.767Y-111.84
X215.267Y-64.088
X215.267Y-87.964
X215.267Y-111.84
T6
X155.956Y-113.872
X159.512Y-59.516
T7
X163.576Y-73.486
X163.576Y-76.026
X163.576Y-78.566
X163.576Y-81.106
X163.576Y-83.646
X163.576Y-86.186
X163.576Y-88.726
X163.576Y-91.266
X163.576Y-93.806
X163.576Y-96.346
X163.576Y-98.886
X163.576Y-101.426
X163.576Y-103.966
X163.576Y-106.506
X163.576Y-109.046
X163.576Y-111.586
X163.576Y-114.126
X163.576Y-116.666
X163.576Y-119.206
X163.576Y-121.746
X181.356Y-73.486
X181.356Y-76.026
X181.356Y-78.566
X181.356Y-81.106
X181.356Y-83.646
X181.356Y-86.186
X181.356Y-88.726
X181.356Y-91.266
X181.356Y-93.806
X181.356Y-96.346
X181.356Y-98.886
X181.356Y-101.426
X181.356Y-103.966
X181.356Y-106.506
X181.356Y-109.046
X181.356Y-111.586
X181.356Y-114.126
X181.356Y-116.666
X181.356Y-119.206
X181.356Y-121.746
X215.392Y-48.34
X215.392Y-50.88
X215.392Y-53.42
X215.392Y-55.96
X215.392Y-72.216
X215.392Y-74.756
X215.392Y-77.296
X215.392Y-79.836
X215.392Y-96.092
X215.392Y-98.632
X215.392Y-101.172
X215.392Y-103.712
T8
X158.496Y-89.996
X158.496Y-100.156
T9
X190.5Y-48.34
X190.5Y-50.88
X190.5Y-53.42
X190.5Y-55.96
X190.5Y-58.5
X190.5Y-61.04
X190.5Y-63.58
X190.5Y-66.12
X190.5Y-72.216
X190.5Y-74.756
X190.5Y-77.296
X190.5Y-79.836
X190.5Y-82.376
X190.5Y-84.916
X190.5Y-87.456
X190.5Y-89.996
X190.5Y-96.092
X190.5Y-98.632
X190.5Y-101.172
X190.5Y-103.712
X190.5Y-106.252
X190.5Y-108.792
X190.5Y-111.332
X190.5Y-113.872
X205.74Y-48.34
X205.74Y-50.88
X205.74Y-53.42
X205.74Y-55.96
X205.74Y-58.5
X205.74Y-61.04
X205.74Y-63.58
X205.74Y-66.12
X205.74Y-72.216
X205.74Y-74.756
X205.74Y-77.296
X205.74Y-79.836
X205.74Y-82.376
X205.74Y-84.916
X205.74Y-87.456
X205.74Y-89.996
X205.74Y-96.092
X205.74Y-98.632
X205.74Y-101.172
X205.74Y-103.712
X205.74Y-106.252
X205.74Y-108.792
X205.74Y-111.332
X205.74Y-113.872
T10
X158.28Y-42.616
X158.28Y-120.616
X188.28Y-42.616
X188.28Y-120.616
X214.28Y-42.616
X214.28Y-120.616
T11
X171.66Y-44.022
X178.86Y-44.022
M30
