G04 #@! TF.GenerationSoftware,KiCad,Pcbnew,9.0.3*
G04 #@! TF.CreationDate,2026-02-04T16:51:12-05:00*
G04 #@! TF.ProjectId,ControlBoard_v1,436f6e74-726f-46c4-926f-6172645f7631,rev?*
G04 #@! TF.SameCoordinates,Original*
G04 #@! TF.FileFunction,Legend,Top*
G04 #@! TF.FilePolarity,Positive*
%FSLAX46Y46*%
G04 Gerber Fmt 4.6, Leading zero omitted, Abs format (unit mm)*
G04 Created by KiCad (PCBNEW 9.0.3) date 2026-02-04 16:51:12*
%MOMM*%
%LPD*%
G01*
G04 APERTURE LIST*
G04 Aperture macros list*
%AMRoundRect*
0 Rectangle with rounded corners*
0 $1 Rounding radius*
0 $2 $3 $4 $5 $6 $7 $8 $9 X,Y pos of 4 corners*
0 Add a 4 corners polygon primitive as box body*
4,1,4,$2,$3,$4,$5,$6,$7,$8,$9,$2,$3,0*
0 Add four circle primitives for the rounded corners*
1,1,$1+$1,$2,$3*
1,1,$1+$1,$4,$5*
1,1,$1+$1,$6,$7*
1,1,$1+$1,$8,$9*
0 Add four rect primitives between the rounded corners*
20,1,$1+$1,$2,$3,$4,$5,0*
20,1,$1+$1,$4,$5,$6,$7,0*
20,1,$1+$1,$6,$7,$8,$9,0*
20,1,$1+$1,$8,$9,$2,$3,0*%
%AMFreePoly0*
4,1,37,0.800000,0.796148,0.878414,0.796148,1.032228,0.765552,1.177117,0.705537,1.307515,0.618408,1.418408,0.507515,1.505537,0.377117,1.565552,0.232228,1.596148,0.078414,1.596148,-0.078414,1.565552,-0.232228,1.505537,-0.377117,1.418408,-0.507515,1.307515,-0.618408,1.177117,-0.705537,1.032228,-0.765552,0.878414,-0.796148,0.800000,-0.796148,0.800000,-0.800000,-1.400000,-0.800000,
-1.403843,-0.796157,-1.439018,-0.796157,-1.511114,-0.766294,-1.566294,-0.711114,-1.596157,-0.639018,-1.596157,-0.603843,-1.600000,-0.600000,-1.600000,0.600000,-1.596157,0.603843,-1.596157,0.639018,-1.566294,0.711114,-1.511114,0.766294,-1.439018,0.796157,-1.403843,0.796157,-1.400000,0.800000,0.800000,0.800000,0.800000,0.796148,0.800000,0.796148,$1*%
%AMFreePoly1*
4,1,37,1.403843,0.796157,1.439018,0.796157,1.511114,0.766294,1.566294,0.711114,1.596157,0.639018,1.596157,0.603843,1.600000,0.600000,1.600000,-0.600000,1.596157,-0.603843,1.596157,-0.639018,1.566294,-0.711114,1.511114,-0.766294,1.439018,-0.796157,1.403843,-0.796157,1.400000,-0.800000,-0.800000,-0.800000,-0.800000,-0.796148,-0.878414,-0.796148,-1.032228,-0.765552,-1.177117,-0.705537,
-1.307515,-0.618408,-1.418408,-0.507515,-1.505537,-0.377117,-1.565552,-0.232228,-1.596148,-0.078414,-1.596148,0.078414,-1.565552,0.232228,-1.505537,0.377117,-1.418408,0.507515,-1.307515,0.618408,-1.177117,0.705537,-1.032228,0.765552,-0.878414,0.796148,-0.800000,0.796148,-0.800000,0.800000,1.400000,0.800000,1.403843,0.796157,1.403843,0.796157,$1*%
%AMFreePoly2*
4,1,37,0.603843,0.796157,0.639018,0.796157,0.711114,0.766294,0.766294,0.711114,0.796157,0.639018,0.796157,0.603843,0.800000,0.600000,0.800000,-0.600000,0.796157,-0.603843,0.796157,-0.639018,0.766294,-0.711114,0.711114,-0.766294,0.639018,-0.796157,0.603843,-0.796157,0.600000,-0.800000,0.000000,-0.800000,0.000000,-0.796148,-0.078414,-0.796148,-0.232228,-0.765552,-0.377117,-0.705537,
-0.507515,-0.618408,-0.618408,-0.507515,-0.705537,-0.377117,-0.765552,-0.232228,-0.796148,-0.078414,-0.796148,0.078414,-0.765552,0.232228,-0.705537,0.377117,-0.618408,0.507515,-0.507515,0.618408,-0.377117,0.705537,-0.232228,0.765552,-0.078414,0.796148,0.000000,0.796148,0.000000,0.800000,0.600000,0.800000,0.603843,0.796157,0.603843,0.796157,$1*%
%AMFreePoly3*
4,1,37,0.000000,0.796148,0.078414,0.796148,0.232228,0.765552,0.377117,0.705537,0.507515,0.618408,0.618408,0.507515,0.705537,0.377117,0.765552,0.232228,0.796148,0.078414,0.796148,-0.078414,0.765552,-0.232228,0.705537,-0.377117,0.618408,-0.507515,0.507515,-0.618408,0.377117,-0.705537,0.232228,-0.765552,0.078414,-0.796148,0.000000,-0.796148,0.000000,-0.800000,-0.600000,-0.800000,
-0.603843,-0.796157,-0.639018,-0.796157,-0.711114,-0.766294,-0.766294,-0.711114,-0.796157,-0.639018,-0.796157,-0.603843,-0.800000,-0.600000,-0.800000,0.600000,-0.796157,0.603843,-0.796157,0.639018,-0.766294,0.711114,-0.711114,0.766294,-0.639018,0.796157,-0.603843,0.796157,-0.600000,0.800000,0.000000,0.800000,0.000000,0.796148,0.000000,0.796148,$1*%
G04 Aperture macros list end*
%ADD10C,0.100000*%
%ADD11C,0.150000*%
%ADD12C,0.300000*%
%ADD13C,0.120000*%
%ADD14C,0.127000*%
%ADD15C,0.200000*%
%ADD16RoundRect,0.250000X0.350000X0.625000X-0.350000X0.625000X-0.350000X-0.625000X0.350000X-0.625000X0*%
%ADD17O,1.200000X1.750000*%
%ADD18RoundRect,0.250000X0.300000X-0.300000X0.300000X0.300000X-0.300000X0.300000X-0.300000X-0.300000X0*%
%ADD19RoundRect,1.500000X-1.500000X-1.500000X1.500000X-1.500000X1.500000X1.500000X-1.500000X1.500000X0*%
%ADD20C,6.000000*%
%ADD21RoundRect,0.249999X0.850001X-0.850001X0.850001X0.850001X-0.850001X0.850001X-0.850001X-0.850001X0*%
%ADD22C,2.200000*%
%ADD23C,2.184000*%
%ADD24R,1.700000X1.700000*%
%ADD25C,1.700000*%
%ADD26RoundRect,0.250000X0.550000X0.550000X-0.550000X0.550000X-0.550000X-0.550000X0.550000X-0.550000X0*%
%ADD27C,1.600000*%
%ADD28C,0.800000*%
%ADD29C,5.400000*%
%ADD30RoundRect,0.250000X0.625000X-0.350000X0.625000X0.350000X-0.625000X0.350000X-0.625000X-0.350000X0*%
%ADD31O,1.750000X1.200000*%
%ADD32C,1.850000*%
%ADD33FreePoly0,180.000000*%
%ADD34RoundRect,0.200000X0.600000X0.600000X-0.600000X0.600000X-0.600000X-0.600000X0.600000X-0.600000X0*%
%ADD35RoundRect,0.800000X0.800000X0.000010X-0.800000X0.000010X-0.800000X-0.000010X0.800000X-0.000010X0*%
%ADD36FreePoly1,180.000000*%
%ADD37FreePoly2,180.000000*%
%ADD38FreePoly3,180.000000*%
%ADD39RoundRect,0.500000X0.500000X-0.500000X0.500000X0.500000X-0.500000X0.500000X-0.500000X-0.500000X0*%
G04 APERTURE END LIST*
D10*
X170474475Y-106392687D02*
X169998284Y-106726020D01*
X170474475Y-106964115D02*
X169474475Y-106964115D01*
X169474475Y-106964115D02*
X169474475Y-106583163D01*
X169474475Y-106583163D02*
X169522094Y-106487925D01*
X169522094Y-106487925D02*
X169569713Y-106440306D01*
X169569713Y-106440306D02*
X169664951Y-106392687D01*
X169664951Y-106392687D02*
X169807808Y-106392687D01*
X169807808Y-106392687D02*
X169903046Y-106440306D01*
X169903046Y-106440306D02*
X169950665Y-106487925D01*
X169950665Y-106487925D02*
X169998284Y-106583163D01*
X169998284Y-106583163D02*
X169998284Y-106964115D01*
X170474475Y-105535544D02*
X169950665Y-105535544D01*
X169950665Y-105535544D02*
X169855427Y-105583163D01*
X169855427Y-105583163D02*
X169807808Y-105678401D01*
X169807808Y-105678401D02*
X169807808Y-105868877D01*
X169807808Y-105868877D02*
X169855427Y-105964115D01*
X170426856Y-105535544D02*
X170474475Y-105630782D01*
X170474475Y-105630782D02*
X170474475Y-105868877D01*
X170474475Y-105868877D02*
X170426856Y-105964115D01*
X170426856Y-105964115D02*
X170331617Y-106011734D01*
X170331617Y-106011734D02*
X170236379Y-106011734D01*
X170236379Y-106011734D02*
X170141141Y-105964115D01*
X170141141Y-105964115D02*
X170093522Y-105868877D01*
X170093522Y-105868877D02*
X170093522Y-105630782D01*
X170093522Y-105630782D02*
X170045903Y-105535544D01*
X170426856Y-105106972D02*
X170474475Y-105011734D01*
X170474475Y-105011734D02*
X170474475Y-104821258D01*
X170474475Y-104821258D02*
X170426856Y-104726020D01*
X170426856Y-104726020D02*
X170331617Y-104678401D01*
X170331617Y-104678401D02*
X170283998Y-104678401D01*
X170283998Y-104678401D02*
X170188760Y-104726020D01*
X170188760Y-104726020D02*
X170141141Y-104821258D01*
X170141141Y-104821258D02*
X170141141Y-104964115D01*
X170141141Y-104964115D02*
X170093522Y-105059353D01*
X170093522Y-105059353D02*
X169998284Y-105106972D01*
X169998284Y-105106972D02*
X169950665Y-105106972D01*
X169950665Y-105106972D02*
X169855427Y-105059353D01*
X169855427Y-105059353D02*
X169807808Y-104964115D01*
X169807808Y-104964115D02*
X169807808Y-104821258D01*
X169807808Y-104821258D02*
X169855427Y-104726020D01*
X169807808Y-104249829D02*
X170807808Y-104249829D01*
X169855427Y-104249829D02*
X169807808Y-104154591D01*
X169807808Y-104154591D02*
X169807808Y-103964115D01*
X169807808Y-103964115D02*
X169855427Y-103868877D01*
X169855427Y-103868877D02*
X169903046Y-103821258D01*
X169903046Y-103821258D02*
X169998284Y-103773639D01*
X169998284Y-103773639D02*
X170283998Y-103773639D01*
X170283998Y-103773639D02*
X170379236Y-103821258D01*
X170379236Y-103821258D02*
X170426856Y-103868877D01*
X170426856Y-103868877D02*
X170474475Y-103964115D01*
X170474475Y-103964115D02*
X170474475Y-104154591D01*
X170474475Y-104154591D02*
X170426856Y-104249829D01*
X170474475Y-103345067D02*
X169474475Y-103345067D01*
X169855427Y-103345067D02*
X169807808Y-103249829D01*
X169807808Y-103249829D02*
X169807808Y-103059353D01*
X169807808Y-103059353D02*
X169855427Y-102964115D01*
X169855427Y-102964115D02*
X169903046Y-102916496D01*
X169903046Y-102916496D02*
X169998284Y-102868877D01*
X169998284Y-102868877D02*
X170283998Y-102868877D01*
X170283998Y-102868877D02*
X170379236Y-102916496D01*
X170379236Y-102916496D02*
X170426856Y-102964115D01*
X170426856Y-102964115D02*
X170474475Y-103059353D01*
X170474475Y-103059353D02*
X170474475Y-103249829D01*
X170474475Y-103249829D02*
X170426856Y-103345067D01*
X170426856Y-102059353D02*
X170474475Y-102154591D01*
X170474475Y-102154591D02*
X170474475Y-102345067D01*
X170474475Y-102345067D02*
X170426856Y-102440305D01*
X170426856Y-102440305D02*
X170331617Y-102487924D01*
X170331617Y-102487924D02*
X169950665Y-102487924D01*
X169950665Y-102487924D02*
X169855427Y-102440305D01*
X169855427Y-102440305D02*
X169807808Y-102345067D01*
X169807808Y-102345067D02*
X169807808Y-102154591D01*
X169807808Y-102154591D02*
X169855427Y-102059353D01*
X169855427Y-102059353D02*
X169950665Y-102011734D01*
X169950665Y-102011734D02*
X170045903Y-102011734D01*
X170045903Y-102011734D02*
X170141141Y-102487924D01*
X170474475Y-101583162D02*
X169807808Y-101583162D01*
X169998284Y-101583162D02*
X169903046Y-101535543D01*
X169903046Y-101535543D02*
X169855427Y-101487924D01*
X169855427Y-101487924D02*
X169807808Y-101392686D01*
X169807808Y-101392686D02*
X169807808Y-101297448D01*
X170474475Y-100964114D02*
X169807808Y-100964114D01*
X169998284Y-100964114D02*
X169903046Y-100916495D01*
X169903046Y-100916495D02*
X169855427Y-100868876D01*
X169855427Y-100868876D02*
X169807808Y-100773638D01*
X169807808Y-100773638D02*
X169807808Y-100678400D01*
X169807808Y-100440304D02*
X170474475Y-100202209D01*
X169807808Y-99964114D02*
X170474475Y-100202209D01*
X170474475Y-100202209D02*
X170712570Y-100297447D01*
X170712570Y-100297447D02*
X170760189Y-100345066D01*
X170760189Y-100345066D02*
X170807808Y-100440304D01*
X170093522Y-99583161D02*
X170093522Y-98821257D01*
X170474475Y-98345066D02*
X169474475Y-98345066D01*
X169474475Y-98345066D02*
X169474475Y-97964114D01*
X169474475Y-97964114D02*
X169522094Y-97868876D01*
X169522094Y-97868876D02*
X169569713Y-97821257D01*
X169569713Y-97821257D02*
X169664951Y-97773638D01*
X169664951Y-97773638D02*
X169807808Y-97773638D01*
X169807808Y-97773638D02*
X169903046Y-97821257D01*
X169903046Y-97821257D02*
X169950665Y-97868876D01*
X169950665Y-97868876D02*
X169998284Y-97964114D01*
X169998284Y-97964114D02*
X169998284Y-98345066D01*
X170474475Y-97345066D02*
X169807808Y-97345066D01*
X169474475Y-97345066D02*
X169522094Y-97392685D01*
X169522094Y-97392685D02*
X169569713Y-97345066D01*
X169569713Y-97345066D02*
X169522094Y-97297447D01*
X169522094Y-97297447D02*
X169474475Y-97345066D01*
X169474475Y-97345066D02*
X169569713Y-97345066D01*
X170474475Y-96106971D02*
X169474475Y-96106971D01*
X169474475Y-96106971D02*
X169474475Y-95726019D01*
X169474475Y-95726019D02*
X169522094Y-95630781D01*
X169522094Y-95630781D02*
X169569713Y-95583162D01*
X169569713Y-95583162D02*
X169664951Y-95535543D01*
X169664951Y-95535543D02*
X169807808Y-95535543D01*
X169807808Y-95535543D02*
X169903046Y-95583162D01*
X169903046Y-95583162D02*
X169950665Y-95630781D01*
X169950665Y-95630781D02*
X169998284Y-95726019D01*
X169998284Y-95726019D02*
X169998284Y-96106971D01*
X170474475Y-95106971D02*
X169807808Y-95106971D01*
X169474475Y-95106971D02*
X169522094Y-95154590D01*
X169522094Y-95154590D02*
X169569713Y-95106971D01*
X169569713Y-95106971D02*
X169522094Y-95059352D01*
X169522094Y-95059352D02*
X169474475Y-95106971D01*
X169474475Y-95106971D02*
X169569713Y-95106971D01*
X170426856Y-94202210D02*
X170474475Y-94297448D01*
X170474475Y-94297448D02*
X170474475Y-94487924D01*
X170474475Y-94487924D02*
X170426856Y-94583162D01*
X170426856Y-94583162D02*
X170379236Y-94630781D01*
X170379236Y-94630781D02*
X170283998Y-94678400D01*
X170283998Y-94678400D02*
X169998284Y-94678400D01*
X169998284Y-94678400D02*
X169903046Y-94630781D01*
X169903046Y-94630781D02*
X169855427Y-94583162D01*
X169855427Y-94583162D02*
X169807808Y-94487924D01*
X169807808Y-94487924D02*
X169807808Y-94297448D01*
X169807808Y-94297448D02*
X169855427Y-94202210D01*
X170474475Y-93630781D02*
X170426856Y-93726019D01*
X170426856Y-93726019D02*
X170379236Y-93773638D01*
X170379236Y-93773638D02*
X170283998Y-93821257D01*
X170283998Y-93821257D02*
X169998284Y-93821257D01*
X169998284Y-93821257D02*
X169903046Y-93773638D01*
X169903046Y-93773638D02*
X169855427Y-93726019D01*
X169855427Y-93726019D02*
X169807808Y-93630781D01*
X169807808Y-93630781D02*
X169807808Y-93487924D01*
X169807808Y-93487924D02*
X169855427Y-93392686D01*
X169855427Y-93392686D02*
X169903046Y-93345067D01*
X169903046Y-93345067D02*
X169998284Y-93297448D01*
X169998284Y-93297448D02*
X170283998Y-93297448D01*
X170283998Y-93297448D02*
X170379236Y-93345067D01*
X170379236Y-93345067D02*
X170426856Y-93392686D01*
X170426856Y-93392686D02*
X170474475Y-93487924D01*
X170474475Y-93487924D02*
X170474475Y-93630781D01*
X169569713Y-92154590D02*
X169522094Y-92106971D01*
X169522094Y-92106971D02*
X169474475Y-92011733D01*
X169474475Y-92011733D02*
X169474475Y-91773638D01*
X169474475Y-91773638D02*
X169522094Y-91678400D01*
X169522094Y-91678400D02*
X169569713Y-91630781D01*
X169569713Y-91630781D02*
X169664951Y-91583162D01*
X169664951Y-91583162D02*
X169760189Y-91583162D01*
X169760189Y-91583162D02*
X169903046Y-91630781D01*
X169903046Y-91630781D02*
X170474475Y-92202209D01*
X170474475Y-92202209D02*
X170474475Y-91583162D01*
X172084419Y-106392687D02*
X171608228Y-106726020D01*
X172084419Y-106964115D02*
X171084419Y-106964115D01*
X171084419Y-106964115D02*
X171084419Y-106583163D01*
X171084419Y-106583163D02*
X171132038Y-106487925D01*
X171132038Y-106487925D02*
X171179657Y-106440306D01*
X171179657Y-106440306D02*
X171274895Y-106392687D01*
X171274895Y-106392687D02*
X171417752Y-106392687D01*
X171417752Y-106392687D02*
X171512990Y-106440306D01*
X171512990Y-106440306D02*
X171560609Y-106487925D01*
X171560609Y-106487925D02*
X171608228Y-106583163D01*
X171608228Y-106583163D02*
X171608228Y-106964115D01*
X172084419Y-105964115D02*
X171084419Y-105964115D01*
X171084419Y-105964115D02*
X171084419Y-105583163D01*
X171084419Y-105583163D02*
X171132038Y-105487925D01*
X171132038Y-105487925D02*
X171179657Y-105440306D01*
X171179657Y-105440306D02*
X171274895Y-105392687D01*
X171274895Y-105392687D02*
X171417752Y-105392687D01*
X171417752Y-105392687D02*
X171512990Y-105440306D01*
X171512990Y-105440306D02*
X171560609Y-105487925D01*
X171560609Y-105487925D02*
X171608228Y-105583163D01*
X171608228Y-105583163D02*
X171608228Y-105964115D01*
X171179657Y-105011734D02*
X171132038Y-104964115D01*
X171132038Y-104964115D02*
X171084419Y-104868877D01*
X171084419Y-104868877D02*
X171084419Y-104630782D01*
X171084419Y-104630782D02*
X171132038Y-104535544D01*
X171132038Y-104535544D02*
X171179657Y-104487925D01*
X171179657Y-104487925D02*
X171274895Y-104440306D01*
X171274895Y-104440306D02*
X171370133Y-104440306D01*
X171370133Y-104440306D02*
X171512990Y-104487925D01*
X171512990Y-104487925D02*
X172084419Y-105059353D01*
X172084419Y-105059353D02*
X172084419Y-104440306D01*
X171084419Y-104106972D02*
X171084419Y-103487925D01*
X171084419Y-103487925D02*
X171465371Y-103821258D01*
X171465371Y-103821258D02*
X171465371Y-103678401D01*
X171465371Y-103678401D02*
X171512990Y-103583163D01*
X171512990Y-103583163D02*
X171560609Y-103535544D01*
X171560609Y-103535544D02*
X171655847Y-103487925D01*
X171655847Y-103487925D02*
X171893942Y-103487925D01*
X171893942Y-103487925D02*
X171989180Y-103535544D01*
X171989180Y-103535544D02*
X172036800Y-103583163D01*
X172036800Y-103583163D02*
X172084419Y-103678401D01*
X172084419Y-103678401D02*
X172084419Y-103964115D01*
X172084419Y-103964115D02*
X172036800Y-104059353D01*
X172036800Y-104059353D02*
X171989180Y-104106972D01*
X171084419Y-102583163D02*
X171084419Y-103059353D01*
X171084419Y-103059353D02*
X171560609Y-103106972D01*
X171560609Y-103106972D02*
X171512990Y-103059353D01*
X171512990Y-103059353D02*
X171465371Y-102964115D01*
X171465371Y-102964115D02*
X171465371Y-102726020D01*
X171465371Y-102726020D02*
X171512990Y-102630782D01*
X171512990Y-102630782D02*
X171560609Y-102583163D01*
X171560609Y-102583163D02*
X171655847Y-102535544D01*
X171655847Y-102535544D02*
X171893942Y-102535544D01*
X171893942Y-102535544D02*
X171989180Y-102583163D01*
X171989180Y-102583163D02*
X172036800Y-102630782D01*
X172036800Y-102630782D02*
X172084419Y-102726020D01*
X172084419Y-102726020D02*
X172084419Y-102964115D01*
X172084419Y-102964115D02*
X172036800Y-103059353D01*
X172036800Y-103059353D02*
X171989180Y-103106972D01*
X171084419Y-101916496D02*
X171084419Y-101821258D01*
X171084419Y-101821258D02*
X171132038Y-101726020D01*
X171132038Y-101726020D02*
X171179657Y-101678401D01*
X171179657Y-101678401D02*
X171274895Y-101630782D01*
X171274895Y-101630782D02*
X171465371Y-101583163D01*
X171465371Y-101583163D02*
X171703466Y-101583163D01*
X171703466Y-101583163D02*
X171893942Y-101630782D01*
X171893942Y-101630782D02*
X171989180Y-101678401D01*
X171989180Y-101678401D02*
X172036800Y-101726020D01*
X172036800Y-101726020D02*
X172084419Y-101821258D01*
X172084419Y-101821258D02*
X172084419Y-101916496D01*
X172084419Y-101916496D02*
X172036800Y-102011734D01*
X172036800Y-102011734D02*
X171989180Y-102059353D01*
X171989180Y-102059353D02*
X171893942Y-102106972D01*
X171893942Y-102106972D02*
X171703466Y-102154591D01*
X171703466Y-102154591D02*
X171465371Y-102154591D01*
X171465371Y-102154591D02*
X171274895Y-102106972D01*
X171274895Y-102106972D02*
X171179657Y-102059353D01*
X171179657Y-102059353D02*
X171132038Y-102011734D01*
X171132038Y-102011734D02*
X171084419Y-101916496D01*
D11*
X212152628Y-79888173D02*
X210652628Y-79888173D01*
X210652628Y-79888173D02*
X211724057Y-79388173D01*
X211724057Y-79388173D02*
X210652628Y-78888173D01*
X210652628Y-78888173D02*
X212152628Y-78888173D01*
X212152628Y-77959601D02*
X212081200Y-78102458D01*
X212081200Y-78102458D02*
X212009771Y-78173887D01*
X212009771Y-78173887D02*
X211866914Y-78245315D01*
X211866914Y-78245315D02*
X211438342Y-78245315D01*
X211438342Y-78245315D02*
X211295485Y-78173887D01*
X211295485Y-78173887D02*
X211224057Y-78102458D01*
X211224057Y-78102458D02*
X211152628Y-77959601D01*
X211152628Y-77959601D02*
X211152628Y-77745315D01*
X211152628Y-77745315D02*
X211224057Y-77602458D01*
X211224057Y-77602458D02*
X211295485Y-77531030D01*
X211295485Y-77531030D02*
X211438342Y-77459601D01*
X211438342Y-77459601D02*
X211866914Y-77459601D01*
X211866914Y-77459601D02*
X212009771Y-77531030D01*
X212009771Y-77531030D02*
X212081200Y-77602458D01*
X212081200Y-77602458D02*
X212152628Y-77745315D01*
X212152628Y-77745315D02*
X212152628Y-77959601D01*
X211152628Y-77031029D02*
X211152628Y-76459601D01*
X210652628Y-76816744D02*
X211938342Y-76816744D01*
X211938342Y-76816744D02*
X212081200Y-76745315D01*
X212081200Y-76745315D02*
X212152628Y-76602458D01*
X212152628Y-76602458D02*
X212152628Y-76459601D01*
X212152628Y-75745315D02*
X212081200Y-75888172D01*
X212081200Y-75888172D02*
X212009771Y-75959601D01*
X212009771Y-75959601D02*
X211866914Y-76031029D01*
X211866914Y-76031029D02*
X211438342Y-76031029D01*
X211438342Y-76031029D02*
X211295485Y-75959601D01*
X211295485Y-75959601D02*
X211224057Y-75888172D01*
X211224057Y-75888172D02*
X211152628Y-75745315D01*
X211152628Y-75745315D02*
X211152628Y-75531029D01*
X211152628Y-75531029D02*
X211224057Y-75388172D01*
X211224057Y-75388172D02*
X211295485Y-75316744D01*
X211295485Y-75316744D02*
X211438342Y-75245315D01*
X211438342Y-75245315D02*
X211866914Y-75245315D01*
X211866914Y-75245315D02*
X212009771Y-75316744D01*
X212009771Y-75316744D02*
X212081200Y-75388172D01*
X212081200Y-75388172D02*
X212152628Y-75531029D01*
X212152628Y-75531029D02*
X212152628Y-75745315D01*
X212152628Y-74602458D02*
X211152628Y-74602458D01*
X211438342Y-74602458D02*
X211295485Y-74531029D01*
X211295485Y-74531029D02*
X211224057Y-74459601D01*
X211224057Y-74459601D02*
X211152628Y-74316743D01*
X211152628Y-74316743D02*
X211152628Y-74173886D01*
X210795485Y-72602458D02*
X210724057Y-72531030D01*
X210724057Y-72531030D02*
X210652628Y-72388173D01*
X210652628Y-72388173D02*
X210652628Y-72031030D01*
X210652628Y-72031030D02*
X210724057Y-71888173D01*
X210724057Y-71888173D02*
X210795485Y-71816744D01*
X210795485Y-71816744D02*
X210938342Y-71745315D01*
X210938342Y-71745315D02*
X211081200Y-71745315D01*
X211081200Y-71745315D02*
X211295485Y-71816744D01*
X211295485Y-71816744D02*
X212152628Y-72673887D01*
X212152628Y-72673887D02*
X212152628Y-71745315D01*
D10*
X195468419Y-110154972D02*
X195468419Y-109583544D01*
X196468419Y-109869258D02*
X195468419Y-109869258D01*
X195944609Y-108916877D02*
X195992228Y-108774020D01*
X195992228Y-108774020D02*
X196039847Y-108726401D01*
X196039847Y-108726401D02*
X196135085Y-108678782D01*
X196135085Y-108678782D02*
X196277942Y-108678782D01*
X196277942Y-108678782D02*
X196373180Y-108726401D01*
X196373180Y-108726401D02*
X196420800Y-108774020D01*
X196420800Y-108774020D02*
X196468419Y-108869258D01*
X196468419Y-108869258D02*
X196468419Y-109250210D01*
X196468419Y-109250210D02*
X195468419Y-109250210D01*
X195468419Y-109250210D02*
X195468419Y-108916877D01*
X195468419Y-108916877D02*
X195516038Y-108821639D01*
X195516038Y-108821639D02*
X195563657Y-108774020D01*
X195563657Y-108774020D02*
X195658895Y-108726401D01*
X195658895Y-108726401D02*
X195754133Y-108726401D01*
X195754133Y-108726401D02*
X195849371Y-108774020D01*
X195849371Y-108774020D02*
X195896990Y-108821639D01*
X195896990Y-108821639D02*
X195944609Y-108916877D01*
X195944609Y-108916877D02*
X195944609Y-109250210D01*
X195468419Y-107821639D02*
X195468419Y-108012115D01*
X195468419Y-108012115D02*
X195516038Y-108107353D01*
X195516038Y-108107353D02*
X195563657Y-108154972D01*
X195563657Y-108154972D02*
X195706514Y-108250210D01*
X195706514Y-108250210D02*
X195896990Y-108297829D01*
X195896990Y-108297829D02*
X196277942Y-108297829D01*
X196277942Y-108297829D02*
X196373180Y-108250210D01*
X196373180Y-108250210D02*
X196420800Y-108202591D01*
X196420800Y-108202591D02*
X196468419Y-108107353D01*
X196468419Y-108107353D02*
X196468419Y-107916877D01*
X196468419Y-107916877D02*
X196420800Y-107821639D01*
X196420800Y-107821639D02*
X196373180Y-107774020D01*
X196373180Y-107774020D02*
X196277942Y-107726401D01*
X196277942Y-107726401D02*
X196039847Y-107726401D01*
X196039847Y-107726401D02*
X195944609Y-107774020D01*
X195944609Y-107774020D02*
X195896990Y-107821639D01*
X195896990Y-107821639D02*
X195849371Y-107916877D01*
X195849371Y-107916877D02*
X195849371Y-108107353D01*
X195849371Y-108107353D02*
X195896990Y-108202591D01*
X195896990Y-108202591D02*
X195944609Y-108250210D01*
X195944609Y-108250210D02*
X196039847Y-108297829D01*
X195468419Y-106869258D02*
X195468419Y-107059734D01*
X195468419Y-107059734D02*
X195516038Y-107154972D01*
X195516038Y-107154972D02*
X195563657Y-107202591D01*
X195563657Y-107202591D02*
X195706514Y-107297829D01*
X195706514Y-107297829D02*
X195896990Y-107345448D01*
X195896990Y-107345448D02*
X196277942Y-107345448D01*
X196277942Y-107345448D02*
X196373180Y-107297829D01*
X196373180Y-107297829D02*
X196420800Y-107250210D01*
X196420800Y-107250210D02*
X196468419Y-107154972D01*
X196468419Y-107154972D02*
X196468419Y-106964496D01*
X196468419Y-106964496D02*
X196420800Y-106869258D01*
X196420800Y-106869258D02*
X196373180Y-106821639D01*
X196373180Y-106821639D02*
X196277942Y-106774020D01*
X196277942Y-106774020D02*
X196039847Y-106774020D01*
X196039847Y-106774020D02*
X195944609Y-106821639D01*
X195944609Y-106821639D02*
X195896990Y-106869258D01*
X195896990Y-106869258D02*
X195849371Y-106964496D01*
X195849371Y-106964496D02*
X195849371Y-107154972D01*
X195849371Y-107154972D02*
X195896990Y-107250210D01*
X195896990Y-107250210D02*
X195944609Y-107297829D01*
X195944609Y-107297829D02*
X196039847Y-107345448D01*
X196468419Y-105821639D02*
X196468419Y-106393067D01*
X196468419Y-106107353D02*
X195468419Y-106107353D01*
X195468419Y-106107353D02*
X195611276Y-106202591D01*
X195611276Y-106202591D02*
X195706514Y-106297829D01*
X195706514Y-106297829D02*
X195754133Y-106393067D01*
X195563657Y-105440686D02*
X195516038Y-105393067D01*
X195516038Y-105393067D02*
X195468419Y-105297829D01*
X195468419Y-105297829D02*
X195468419Y-105059734D01*
X195468419Y-105059734D02*
X195516038Y-104964496D01*
X195516038Y-104964496D02*
X195563657Y-104916877D01*
X195563657Y-104916877D02*
X195658895Y-104869258D01*
X195658895Y-104869258D02*
X195754133Y-104869258D01*
X195754133Y-104869258D02*
X195896990Y-104916877D01*
X195896990Y-104916877D02*
X196468419Y-105488305D01*
X196468419Y-105488305D02*
X196468419Y-104869258D01*
X195944609Y-104107353D02*
X195944609Y-104440686D01*
X196468419Y-104440686D02*
X195468419Y-104440686D01*
X195468419Y-104440686D02*
X195468419Y-103964496D01*
X196468419Y-103583543D02*
X195468419Y-103583543D01*
X195468419Y-103583543D02*
X196468419Y-103012115D01*
X196468419Y-103012115D02*
X195468419Y-103012115D01*
X195516038Y-102012115D02*
X195468419Y-102107353D01*
X195468419Y-102107353D02*
X195468419Y-102250210D01*
X195468419Y-102250210D02*
X195516038Y-102393067D01*
X195516038Y-102393067D02*
X195611276Y-102488305D01*
X195611276Y-102488305D02*
X195706514Y-102535924D01*
X195706514Y-102535924D02*
X195896990Y-102583543D01*
X195896990Y-102583543D02*
X196039847Y-102583543D01*
X196039847Y-102583543D02*
X196230323Y-102535924D01*
X196230323Y-102535924D02*
X196325561Y-102488305D01*
X196325561Y-102488305D02*
X196420800Y-102393067D01*
X196420800Y-102393067D02*
X196468419Y-102250210D01*
X196468419Y-102250210D02*
X196468419Y-102154972D01*
X196468419Y-102154972D02*
X196420800Y-102012115D01*
X196420800Y-102012115D02*
X196373180Y-101964496D01*
X196373180Y-101964496D02*
X196039847Y-101964496D01*
X196039847Y-101964496D02*
X196039847Y-102154972D01*
D11*
X166960779Y-65481819D02*
X166960779Y-64481819D01*
X166960779Y-64481819D02*
X167198874Y-64481819D01*
X167198874Y-64481819D02*
X167341731Y-64529438D01*
X167341731Y-64529438D02*
X167436969Y-64624676D01*
X167436969Y-64624676D02*
X167484588Y-64719914D01*
X167484588Y-64719914D02*
X167532207Y-64910390D01*
X167532207Y-64910390D02*
X167532207Y-65053247D01*
X167532207Y-65053247D02*
X167484588Y-65243723D01*
X167484588Y-65243723D02*
X167436969Y-65338961D01*
X167436969Y-65338961D02*
X167341731Y-65434200D01*
X167341731Y-65434200D02*
X167198874Y-65481819D01*
X167198874Y-65481819D02*
X166960779Y-65481819D01*
X168532207Y-65386580D02*
X168484588Y-65434200D01*
X168484588Y-65434200D02*
X168341731Y-65481819D01*
X168341731Y-65481819D02*
X168246493Y-65481819D01*
X168246493Y-65481819D02*
X168103636Y-65434200D01*
X168103636Y-65434200D02*
X168008398Y-65338961D01*
X168008398Y-65338961D02*
X167960779Y-65243723D01*
X167960779Y-65243723D02*
X167913160Y-65053247D01*
X167913160Y-65053247D02*
X167913160Y-64910390D01*
X167913160Y-64910390D02*
X167960779Y-64719914D01*
X167960779Y-64719914D02*
X168008398Y-64624676D01*
X168008398Y-64624676D02*
X168103636Y-64529438D01*
X168103636Y-64529438D02*
X168246493Y-64481819D01*
X168246493Y-64481819D02*
X168341731Y-64481819D01*
X168341731Y-64481819D02*
X168484588Y-64529438D01*
X168484588Y-64529438D02*
X168532207Y-64577057D01*
X168960779Y-65481819D02*
X168960779Y-64481819D01*
X168960779Y-64481819D02*
X169198874Y-64481819D01*
X169198874Y-64481819D02*
X169341731Y-64529438D01*
X169341731Y-64529438D02*
X169436969Y-64624676D01*
X169436969Y-64624676D02*
X169484588Y-64719914D01*
X169484588Y-64719914D02*
X169532207Y-64910390D01*
X169532207Y-64910390D02*
X169532207Y-65053247D01*
X169532207Y-65053247D02*
X169484588Y-65243723D01*
X169484588Y-65243723D02*
X169436969Y-65338961D01*
X169436969Y-65338961D02*
X169341731Y-65434200D01*
X169341731Y-65434200D02*
X169198874Y-65481819D01*
X169198874Y-65481819D02*
X168960779Y-65481819D01*
X170532207Y-65386580D02*
X170484588Y-65434200D01*
X170484588Y-65434200D02*
X170341731Y-65481819D01*
X170341731Y-65481819D02*
X170246493Y-65481819D01*
X170246493Y-65481819D02*
X170103636Y-65434200D01*
X170103636Y-65434200D02*
X170008398Y-65338961D01*
X170008398Y-65338961D02*
X169960779Y-65243723D01*
X169960779Y-65243723D02*
X169913160Y-65053247D01*
X169913160Y-65053247D02*
X169913160Y-64910390D01*
X169913160Y-64910390D02*
X169960779Y-64719914D01*
X169960779Y-64719914D02*
X170008398Y-64624676D01*
X170008398Y-64624676D02*
X170103636Y-64529438D01*
X170103636Y-64529438D02*
X170246493Y-64481819D01*
X170246493Y-64481819D02*
X170341731Y-64481819D01*
X170341731Y-64481819D02*
X170484588Y-64529438D01*
X170484588Y-64529438D02*
X170532207Y-64577057D01*
X170960779Y-65100866D02*
X171722684Y-65100866D01*
X172675064Y-64481819D02*
X172198874Y-64481819D01*
X172198874Y-64481819D02*
X172151255Y-64958009D01*
X172151255Y-64958009D02*
X172198874Y-64910390D01*
X172198874Y-64910390D02*
X172294112Y-64862771D01*
X172294112Y-64862771D02*
X172532207Y-64862771D01*
X172532207Y-64862771D02*
X172627445Y-64910390D01*
X172627445Y-64910390D02*
X172675064Y-64958009D01*
X172675064Y-64958009D02*
X172722683Y-65053247D01*
X172722683Y-65053247D02*
X172722683Y-65291342D01*
X172722683Y-65291342D02*
X172675064Y-65386580D01*
X172675064Y-65386580D02*
X172627445Y-65434200D01*
X172627445Y-65434200D02*
X172532207Y-65481819D01*
X172532207Y-65481819D02*
X172294112Y-65481819D01*
X172294112Y-65481819D02*
X172198874Y-65434200D01*
X172198874Y-65434200D02*
X172151255Y-65386580D01*
X173008398Y-64481819D02*
X173341731Y-65481819D01*
X173341731Y-65481819D02*
X173675064Y-64481819D01*
X212152628Y-56012173D02*
X210652628Y-56012173D01*
X210652628Y-56012173D02*
X211724057Y-55512173D01*
X211724057Y-55512173D02*
X210652628Y-55012173D01*
X210652628Y-55012173D02*
X212152628Y-55012173D01*
X212152628Y-54083601D02*
X212081200Y-54226458D01*
X212081200Y-54226458D02*
X212009771Y-54297887D01*
X212009771Y-54297887D02*
X211866914Y-54369315D01*
X211866914Y-54369315D02*
X211438342Y-54369315D01*
X211438342Y-54369315D02*
X211295485Y-54297887D01*
X211295485Y-54297887D02*
X211224057Y-54226458D01*
X211224057Y-54226458D02*
X211152628Y-54083601D01*
X211152628Y-54083601D02*
X211152628Y-53869315D01*
X211152628Y-53869315D02*
X211224057Y-53726458D01*
X211224057Y-53726458D02*
X211295485Y-53655030D01*
X211295485Y-53655030D02*
X211438342Y-53583601D01*
X211438342Y-53583601D02*
X211866914Y-53583601D01*
X211866914Y-53583601D02*
X212009771Y-53655030D01*
X212009771Y-53655030D02*
X212081200Y-53726458D01*
X212081200Y-53726458D02*
X212152628Y-53869315D01*
X212152628Y-53869315D02*
X212152628Y-54083601D01*
X211152628Y-53155029D02*
X211152628Y-52583601D01*
X210652628Y-52940744D02*
X211938342Y-52940744D01*
X211938342Y-52940744D02*
X212081200Y-52869315D01*
X212081200Y-52869315D02*
X212152628Y-52726458D01*
X212152628Y-52726458D02*
X212152628Y-52583601D01*
X212152628Y-51869315D02*
X212081200Y-52012172D01*
X212081200Y-52012172D02*
X212009771Y-52083601D01*
X212009771Y-52083601D02*
X211866914Y-52155029D01*
X211866914Y-52155029D02*
X211438342Y-52155029D01*
X211438342Y-52155029D02*
X211295485Y-52083601D01*
X211295485Y-52083601D02*
X211224057Y-52012172D01*
X211224057Y-52012172D02*
X211152628Y-51869315D01*
X211152628Y-51869315D02*
X211152628Y-51655029D01*
X211152628Y-51655029D02*
X211224057Y-51512172D01*
X211224057Y-51512172D02*
X211295485Y-51440744D01*
X211295485Y-51440744D02*
X211438342Y-51369315D01*
X211438342Y-51369315D02*
X211866914Y-51369315D01*
X211866914Y-51369315D02*
X212009771Y-51440744D01*
X212009771Y-51440744D02*
X212081200Y-51512172D01*
X212081200Y-51512172D02*
X212152628Y-51655029D01*
X212152628Y-51655029D02*
X212152628Y-51869315D01*
X212152628Y-50726458D02*
X211152628Y-50726458D01*
X211438342Y-50726458D02*
X211295485Y-50655029D01*
X211295485Y-50655029D02*
X211224057Y-50583601D01*
X211224057Y-50583601D02*
X211152628Y-50440743D01*
X211152628Y-50440743D02*
X211152628Y-50297886D01*
X212152628Y-47869315D02*
X212152628Y-48726458D01*
X212152628Y-48297887D02*
X210652628Y-48297887D01*
X210652628Y-48297887D02*
X210866914Y-48440744D01*
X210866914Y-48440744D02*
X211009771Y-48583601D01*
X211009771Y-48583601D02*
X211081200Y-48726458D01*
X194511826Y-116958914D02*
X195011826Y-116958914D01*
X195226112Y-117744628D02*
X194511826Y-117744628D01*
X194511826Y-117744628D02*
X194511826Y-116244628D01*
X194511826Y-116244628D02*
X195226112Y-116244628D01*
X195868969Y-116744628D02*
X195868969Y-117744628D01*
X195868969Y-116887485D02*
X195940398Y-116816057D01*
X195940398Y-116816057D02*
X196083255Y-116744628D01*
X196083255Y-116744628D02*
X196297541Y-116744628D01*
X196297541Y-116744628D02*
X196440398Y-116816057D01*
X196440398Y-116816057D02*
X196511827Y-116958914D01*
X196511827Y-116958914D02*
X196511827Y-117744628D01*
X197868970Y-117673200D02*
X197726112Y-117744628D01*
X197726112Y-117744628D02*
X197440398Y-117744628D01*
X197440398Y-117744628D02*
X197297541Y-117673200D01*
X197297541Y-117673200D02*
X197226112Y-117601771D01*
X197226112Y-117601771D02*
X197154684Y-117458914D01*
X197154684Y-117458914D02*
X197154684Y-117030342D01*
X197154684Y-117030342D02*
X197226112Y-116887485D01*
X197226112Y-116887485D02*
X197297541Y-116816057D01*
X197297541Y-116816057D02*
X197440398Y-116744628D01*
X197440398Y-116744628D02*
X197726112Y-116744628D01*
X197726112Y-116744628D02*
X197868970Y-116816057D01*
X198726112Y-117744628D02*
X198583255Y-117673200D01*
X198583255Y-117673200D02*
X198511826Y-117601771D01*
X198511826Y-117601771D02*
X198440398Y-117458914D01*
X198440398Y-117458914D02*
X198440398Y-117030342D01*
X198440398Y-117030342D02*
X198511826Y-116887485D01*
X198511826Y-116887485D02*
X198583255Y-116816057D01*
X198583255Y-116816057D02*
X198726112Y-116744628D01*
X198726112Y-116744628D02*
X198940398Y-116744628D01*
X198940398Y-116744628D02*
X199083255Y-116816057D01*
X199083255Y-116816057D02*
X199154684Y-116887485D01*
X199154684Y-116887485D02*
X199226112Y-117030342D01*
X199226112Y-117030342D02*
X199226112Y-117458914D01*
X199226112Y-117458914D02*
X199154684Y-117601771D01*
X199154684Y-117601771D02*
X199083255Y-117673200D01*
X199083255Y-117673200D02*
X198940398Y-117744628D01*
X198940398Y-117744628D02*
X198726112Y-117744628D01*
X200511827Y-117744628D02*
X200511827Y-116244628D01*
X200511827Y-117673200D02*
X200368969Y-117744628D01*
X200368969Y-117744628D02*
X200083255Y-117744628D01*
X200083255Y-117744628D02*
X199940398Y-117673200D01*
X199940398Y-117673200D02*
X199868969Y-117601771D01*
X199868969Y-117601771D02*
X199797541Y-117458914D01*
X199797541Y-117458914D02*
X199797541Y-117030342D01*
X199797541Y-117030342D02*
X199868969Y-116887485D01*
X199868969Y-116887485D02*
X199940398Y-116816057D01*
X199940398Y-116816057D02*
X200083255Y-116744628D01*
X200083255Y-116744628D02*
X200368969Y-116744628D01*
X200368969Y-116744628D02*
X200511827Y-116816057D01*
X201797541Y-117673200D02*
X201654684Y-117744628D01*
X201654684Y-117744628D02*
X201368970Y-117744628D01*
X201368970Y-117744628D02*
X201226112Y-117673200D01*
X201226112Y-117673200D02*
X201154684Y-117530342D01*
X201154684Y-117530342D02*
X201154684Y-116958914D01*
X201154684Y-116958914D02*
X201226112Y-116816057D01*
X201226112Y-116816057D02*
X201368970Y-116744628D01*
X201368970Y-116744628D02*
X201654684Y-116744628D01*
X201654684Y-116744628D02*
X201797541Y-116816057D01*
X201797541Y-116816057D02*
X201868970Y-116958914D01*
X201868970Y-116958914D02*
X201868970Y-117101771D01*
X201868970Y-117101771D02*
X201154684Y-117244628D01*
X202511826Y-117744628D02*
X202511826Y-116744628D01*
X202511826Y-117030342D02*
X202583255Y-116887485D01*
X202583255Y-116887485D02*
X202654684Y-116816057D01*
X202654684Y-116816057D02*
X202797541Y-116744628D01*
X202797541Y-116744628D02*
X202940398Y-116744628D01*
X203368969Y-117673200D02*
X203511826Y-117744628D01*
X203511826Y-117744628D02*
X203797540Y-117744628D01*
X203797540Y-117744628D02*
X203940397Y-117673200D01*
X203940397Y-117673200D02*
X204011826Y-117530342D01*
X204011826Y-117530342D02*
X204011826Y-117458914D01*
X204011826Y-117458914D02*
X203940397Y-117316057D01*
X203940397Y-117316057D02*
X203797540Y-117244628D01*
X203797540Y-117244628D02*
X203583255Y-117244628D01*
X203583255Y-117244628D02*
X203440397Y-117173200D01*
X203440397Y-117173200D02*
X203368969Y-117030342D01*
X203368969Y-117030342D02*
X203368969Y-116958914D01*
X203368969Y-116958914D02*
X203440397Y-116816057D01*
X203440397Y-116816057D02*
X203583255Y-116744628D01*
X203583255Y-116744628D02*
X203797540Y-116744628D01*
X203797540Y-116744628D02*
X203940397Y-116816057D01*
D10*
X195468419Y-86278972D02*
X195468419Y-85707544D01*
X196468419Y-85993258D02*
X195468419Y-85993258D01*
X195944609Y-85040877D02*
X195992228Y-84898020D01*
X195992228Y-84898020D02*
X196039847Y-84850401D01*
X196039847Y-84850401D02*
X196135085Y-84802782D01*
X196135085Y-84802782D02*
X196277942Y-84802782D01*
X196277942Y-84802782D02*
X196373180Y-84850401D01*
X196373180Y-84850401D02*
X196420800Y-84898020D01*
X196420800Y-84898020D02*
X196468419Y-84993258D01*
X196468419Y-84993258D02*
X196468419Y-85374210D01*
X196468419Y-85374210D02*
X195468419Y-85374210D01*
X195468419Y-85374210D02*
X195468419Y-85040877D01*
X195468419Y-85040877D02*
X195516038Y-84945639D01*
X195516038Y-84945639D02*
X195563657Y-84898020D01*
X195563657Y-84898020D02*
X195658895Y-84850401D01*
X195658895Y-84850401D02*
X195754133Y-84850401D01*
X195754133Y-84850401D02*
X195849371Y-84898020D01*
X195849371Y-84898020D02*
X195896990Y-84945639D01*
X195896990Y-84945639D02*
X195944609Y-85040877D01*
X195944609Y-85040877D02*
X195944609Y-85374210D01*
X195468419Y-83945639D02*
X195468419Y-84136115D01*
X195468419Y-84136115D02*
X195516038Y-84231353D01*
X195516038Y-84231353D02*
X195563657Y-84278972D01*
X195563657Y-84278972D02*
X195706514Y-84374210D01*
X195706514Y-84374210D02*
X195896990Y-84421829D01*
X195896990Y-84421829D02*
X196277942Y-84421829D01*
X196277942Y-84421829D02*
X196373180Y-84374210D01*
X196373180Y-84374210D02*
X196420800Y-84326591D01*
X196420800Y-84326591D02*
X196468419Y-84231353D01*
X196468419Y-84231353D02*
X196468419Y-84040877D01*
X196468419Y-84040877D02*
X196420800Y-83945639D01*
X196420800Y-83945639D02*
X196373180Y-83898020D01*
X196373180Y-83898020D02*
X196277942Y-83850401D01*
X196277942Y-83850401D02*
X196039847Y-83850401D01*
X196039847Y-83850401D02*
X195944609Y-83898020D01*
X195944609Y-83898020D02*
X195896990Y-83945639D01*
X195896990Y-83945639D02*
X195849371Y-84040877D01*
X195849371Y-84040877D02*
X195849371Y-84231353D01*
X195849371Y-84231353D02*
X195896990Y-84326591D01*
X195896990Y-84326591D02*
X195944609Y-84374210D01*
X195944609Y-84374210D02*
X196039847Y-84421829D01*
X195468419Y-82993258D02*
X195468419Y-83183734D01*
X195468419Y-83183734D02*
X195516038Y-83278972D01*
X195516038Y-83278972D02*
X195563657Y-83326591D01*
X195563657Y-83326591D02*
X195706514Y-83421829D01*
X195706514Y-83421829D02*
X195896990Y-83469448D01*
X195896990Y-83469448D02*
X196277942Y-83469448D01*
X196277942Y-83469448D02*
X196373180Y-83421829D01*
X196373180Y-83421829D02*
X196420800Y-83374210D01*
X196420800Y-83374210D02*
X196468419Y-83278972D01*
X196468419Y-83278972D02*
X196468419Y-83088496D01*
X196468419Y-83088496D02*
X196420800Y-82993258D01*
X196420800Y-82993258D02*
X196373180Y-82945639D01*
X196373180Y-82945639D02*
X196277942Y-82898020D01*
X196277942Y-82898020D02*
X196039847Y-82898020D01*
X196039847Y-82898020D02*
X195944609Y-82945639D01*
X195944609Y-82945639D02*
X195896990Y-82993258D01*
X195896990Y-82993258D02*
X195849371Y-83088496D01*
X195849371Y-83088496D02*
X195849371Y-83278972D01*
X195849371Y-83278972D02*
X195896990Y-83374210D01*
X195896990Y-83374210D02*
X195944609Y-83421829D01*
X195944609Y-83421829D02*
X196039847Y-83469448D01*
X196468419Y-81945639D02*
X196468419Y-82517067D01*
X196468419Y-82231353D02*
X195468419Y-82231353D01*
X195468419Y-82231353D02*
X195611276Y-82326591D01*
X195611276Y-82326591D02*
X195706514Y-82421829D01*
X195706514Y-82421829D02*
X195754133Y-82517067D01*
X195563657Y-81564686D02*
X195516038Y-81517067D01*
X195516038Y-81517067D02*
X195468419Y-81421829D01*
X195468419Y-81421829D02*
X195468419Y-81183734D01*
X195468419Y-81183734D02*
X195516038Y-81088496D01*
X195516038Y-81088496D02*
X195563657Y-81040877D01*
X195563657Y-81040877D02*
X195658895Y-80993258D01*
X195658895Y-80993258D02*
X195754133Y-80993258D01*
X195754133Y-80993258D02*
X195896990Y-81040877D01*
X195896990Y-81040877D02*
X196468419Y-81612305D01*
X196468419Y-81612305D02*
X196468419Y-80993258D01*
X195944609Y-80231353D02*
X195944609Y-80564686D01*
X196468419Y-80564686D02*
X195468419Y-80564686D01*
X195468419Y-80564686D02*
X195468419Y-80088496D01*
X196468419Y-79707543D02*
X195468419Y-79707543D01*
X195468419Y-79707543D02*
X196468419Y-79136115D01*
X196468419Y-79136115D02*
X195468419Y-79136115D01*
X195516038Y-78136115D02*
X195468419Y-78231353D01*
X195468419Y-78231353D02*
X195468419Y-78374210D01*
X195468419Y-78374210D02*
X195516038Y-78517067D01*
X195516038Y-78517067D02*
X195611276Y-78612305D01*
X195611276Y-78612305D02*
X195706514Y-78659924D01*
X195706514Y-78659924D02*
X195896990Y-78707543D01*
X195896990Y-78707543D02*
X196039847Y-78707543D01*
X196039847Y-78707543D02*
X196230323Y-78659924D01*
X196230323Y-78659924D02*
X196325561Y-78612305D01*
X196325561Y-78612305D02*
X196420800Y-78517067D01*
X196420800Y-78517067D02*
X196468419Y-78374210D01*
X196468419Y-78374210D02*
X196468419Y-78278972D01*
X196468419Y-78278972D02*
X196420800Y-78136115D01*
X196420800Y-78136115D02*
X196373180Y-78088496D01*
X196373180Y-78088496D02*
X196039847Y-78088496D01*
X196039847Y-78088496D02*
X196039847Y-78278972D01*
X195468419Y-62402972D02*
X195468419Y-61831544D01*
X196468419Y-62117258D02*
X195468419Y-62117258D01*
X195944609Y-61164877D02*
X195992228Y-61022020D01*
X195992228Y-61022020D02*
X196039847Y-60974401D01*
X196039847Y-60974401D02*
X196135085Y-60926782D01*
X196135085Y-60926782D02*
X196277942Y-60926782D01*
X196277942Y-60926782D02*
X196373180Y-60974401D01*
X196373180Y-60974401D02*
X196420800Y-61022020D01*
X196420800Y-61022020D02*
X196468419Y-61117258D01*
X196468419Y-61117258D02*
X196468419Y-61498210D01*
X196468419Y-61498210D02*
X195468419Y-61498210D01*
X195468419Y-61498210D02*
X195468419Y-61164877D01*
X195468419Y-61164877D02*
X195516038Y-61069639D01*
X195516038Y-61069639D02*
X195563657Y-61022020D01*
X195563657Y-61022020D02*
X195658895Y-60974401D01*
X195658895Y-60974401D02*
X195754133Y-60974401D01*
X195754133Y-60974401D02*
X195849371Y-61022020D01*
X195849371Y-61022020D02*
X195896990Y-61069639D01*
X195896990Y-61069639D02*
X195944609Y-61164877D01*
X195944609Y-61164877D02*
X195944609Y-61498210D01*
X195468419Y-60069639D02*
X195468419Y-60260115D01*
X195468419Y-60260115D02*
X195516038Y-60355353D01*
X195516038Y-60355353D02*
X195563657Y-60402972D01*
X195563657Y-60402972D02*
X195706514Y-60498210D01*
X195706514Y-60498210D02*
X195896990Y-60545829D01*
X195896990Y-60545829D02*
X196277942Y-60545829D01*
X196277942Y-60545829D02*
X196373180Y-60498210D01*
X196373180Y-60498210D02*
X196420800Y-60450591D01*
X196420800Y-60450591D02*
X196468419Y-60355353D01*
X196468419Y-60355353D02*
X196468419Y-60164877D01*
X196468419Y-60164877D02*
X196420800Y-60069639D01*
X196420800Y-60069639D02*
X196373180Y-60022020D01*
X196373180Y-60022020D02*
X196277942Y-59974401D01*
X196277942Y-59974401D02*
X196039847Y-59974401D01*
X196039847Y-59974401D02*
X195944609Y-60022020D01*
X195944609Y-60022020D02*
X195896990Y-60069639D01*
X195896990Y-60069639D02*
X195849371Y-60164877D01*
X195849371Y-60164877D02*
X195849371Y-60355353D01*
X195849371Y-60355353D02*
X195896990Y-60450591D01*
X195896990Y-60450591D02*
X195944609Y-60498210D01*
X195944609Y-60498210D02*
X196039847Y-60545829D01*
X195468419Y-59117258D02*
X195468419Y-59307734D01*
X195468419Y-59307734D02*
X195516038Y-59402972D01*
X195516038Y-59402972D02*
X195563657Y-59450591D01*
X195563657Y-59450591D02*
X195706514Y-59545829D01*
X195706514Y-59545829D02*
X195896990Y-59593448D01*
X195896990Y-59593448D02*
X196277942Y-59593448D01*
X196277942Y-59593448D02*
X196373180Y-59545829D01*
X196373180Y-59545829D02*
X196420800Y-59498210D01*
X196420800Y-59498210D02*
X196468419Y-59402972D01*
X196468419Y-59402972D02*
X196468419Y-59212496D01*
X196468419Y-59212496D02*
X196420800Y-59117258D01*
X196420800Y-59117258D02*
X196373180Y-59069639D01*
X196373180Y-59069639D02*
X196277942Y-59022020D01*
X196277942Y-59022020D02*
X196039847Y-59022020D01*
X196039847Y-59022020D02*
X195944609Y-59069639D01*
X195944609Y-59069639D02*
X195896990Y-59117258D01*
X195896990Y-59117258D02*
X195849371Y-59212496D01*
X195849371Y-59212496D02*
X195849371Y-59402972D01*
X195849371Y-59402972D02*
X195896990Y-59498210D01*
X195896990Y-59498210D02*
X195944609Y-59545829D01*
X195944609Y-59545829D02*
X196039847Y-59593448D01*
X196468419Y-58069639D02*
X196468419Y-58641067D01*
X196468419Y-58355353D02*
X195468419Y-58355353D01*
X195468419Y-58355353D02*
X195611276Y-58450591D01*
X195611276Y-58450591D02*
X195706514Y-58545829D01*
X195706514Y-58545829D02*
X195754133Y-58641067D01*
X195563657Y-57688686D02*
X195516038Y-57641067D01*
X195516038Y-57641067D02*
X195468419Y-57545829D01*
X195468419Y-57545829D02*
X195468419Y-57307734D01*
X195468419Y-57307734D02*
X195516038Y-57212496D01*
X195516038Y-57212496D02*
X195563657Y-57164877D01*
X195563657Y-57164877D02*
X195658895Y-57117258D01*
X195658895Y-57117258D02*
X195754133Y-57117258D01*
X195754133Y-57117258D02*
X195896990Y-57164877D01*
X195896990Y-57164877D02*
X196468419Y-57736305D01*
X196468419Y-57736305D02*
X196468419Y-57117258D01*
X195944609Y-56355353D02*
X195944609Y-56688686D01*
X196468419Y-56688686D02*
X195468419Y-56688686D01*
X195468419Y-56688686D02*
X195468419Y-56212496D01*
X196468419Y-55831543D02*
X195468419Y-55831543D01*
X195468419Y-55831543D02*
X196468419Y-55260115D01*
X196468419Y-55260115D02*
X195468419Y-55260115D01*
X195516038Y-54260115D02*
X195468419Y-54355353D01*
X195468419Y-54355353D02*
X195468419Y-54498210D01*
X195468419Y-54498210D02*
X195516038Y-54641067D01*
X195516038Y-54641067D02*
X195611276Y-54736305D01*
X195611276Y-54736305D02*
X195706514Y-54783924D01*
X195706514Y-54783924D02*
X195896990Y-54831543D01*
X195896990Y-54831543D02*
X196039847Y-54831543D01*
X196039847Y-54831543D02*
X196230323Y-54783924D01*
X196230323Y-54783924D02*
X196325561Y-54736305D01*
X196325561Y-54736305D02*
X196420800Y-54641067D01*
X196420800Y-54641067D02*
X196468419Y-54498210D01*
X196468419Y-54498210D02*
X196468419Y-54402972D01*
X196468419Y-54402972D02*
X196420800Y-54260115D01*
X196420800Y-54260115D02*
X196373180Y-54212496D01*
X196373180Y-54212496D02*
X196039847Y-54212496D01*
X196039847Y-54212496D02*
X196039847Y-54402972D01*
X156177752Y-50163353D02*
X156844419Y-49925258D01*
X156844419Y-49925258D02*
X156177752Y-49687163D01*
X156844419Y-48782401D02*
X156844419Y-49353829D01*
X156844419Y-49068115D02*
X155844419Y-49068115D01*
X155844419Y-49068115D02*
X155987276Y-49163353D01*
X155987276Y-49163353D02*
X156082514Y-49258591D01*
X156082514Y-49258591D02*
X156130133Y-49353829D01*
X156749180Y-48353829D02*
X156796800Y-48306210D01*
X156796800Y-48306210D02*
X156844419Y-48353829D01*
X156844419Y-48353829D02*
X156796800Y-48401448D01*
X156796800Y-48401448D02*
X156749180Y-48353829D01*
X156749180Y-48353829D02*
X156844419Y-48353829D01*
X155844419Y-47972877D02*
X155844419Y-47353830D01*
X155844419Y-47353830D02*
X156225371Y-47687163D01*
X156225371Y-47687163D02*
X156225371Y-47544306D01*
X156225371Y-47544306D02*
X156272990Y-47449068D01*
X156272990Y-47449068D02*
X156320609Y-47401449D01*
X156320609Y-47401449D02*
X156415847Y-47353830D01*
X156415847Y-47353830D02*
X156653942Y-47353830D01*
X156653942Y-47353830D02*
X156749180Y-47401449D01*
X156749180Y-47401449D02*
X156796800Y-47449068D01*
X156796800Y-47449068D02*
X156844419Y-47544306D01*
X156844419Y-47544306D02*
X156844419Y-47830020D01*
X156844419Y-47830020D02*
X156796800Y-47925258D01*
X156796800Y-47925258D02*
X156749180Y-47972877D01*
D12*
X180505558Y-49857733D02*
X182029368Y-49857733D01*
X181267463Y-50619638D02*
X181267463Y-49095828D01*
D11*
X212152628Y-103764173D02*
X210652628Y-103764173D01*
X210652628Y-103764173D02*
X211724057Y-103264173D01*
X211724057Y-103264173D02*
X210652628Y-102764173D01*
X210652628Y-102764173D02*
X212152628Y-102764173D01*
X212152628Y-101835601D02*
X212081200Y-101978458D01*
X212081200Y-101978458D02*
X212009771Y-102049887D01*
X212009771Y-102049887D02*
X211866914Y-102121315D01*
X211866914Y-102121315D02*
X211438342Y-102121315D01*
X211438342Y-102121315D02*
X211295485Y-102049887D01*
X211295485Y-102049887D02*
X211224057Y-101978458D01*
X211224057Y-101978458D02*
X211152628Y-101835601D01*
X211152628Y-101835601D02*
X211152628Y-101621315D01*
X211152628Y-101621315D02*
X211224057Y-101478458D01*
X211224057Y-101478458D02*
X211295485Y-101407030D01*
X211295485Y-101407030D02*
X211438342Y-101335601D01*
X211438342Y-101335601D02*
X211866914Y-101335601D01*
X211866914Y-101335601D02*
X212009771Y-101407030D01*
X212009771Y-101407030D02*
X212081200Y-101478458D01*
X212081200Y-101478458D02*
X212152628Y-101621315D01*
X212152628Y-101621315D02*
X212152628Y-101835601D01*
X211152628Y-100907029D02*
X211152628Y-100335601D01*
X210652628Y-100692744D02*
X211938342Y-100692744D01*
X211938342Y-100692744D02*
X212081200Y-100621315D01*
X212081200Y-100621315D02*
X212152628Y-100478458D01*
X212152628Y-100478458D02*
X212152628Y-100335601D01*
X212152628Y-99621315D02*
X212081200Y-99764172D01*
X212081200Y-99764172D02*
X212009771Y-99835601D01*
X212009771Y-99835601D02*
X211866914Y-99907029D01*
X211866914Y-99907029D02*
X211438342Y-99907029D01*
X211438342Y-99907029D02*
X211295485Y-99835601D01*
X211295485Y-99835601D02*
X211224057Y-99764172D01*
X211224057Y-99764172D02*
X211152628Y-99621315D01*
X211152628Y-99621315D02*
X211152628Y-99407029D01*
X211152628Y-99407029D02*
X211224057Y-99264172D01*
X211224057Y-99264172D02*
X211295485Y-99192744D01*
X211295485Y-99192744D02*
X211438342Y-99121315D01*
X211438342Y-99121315D02*
X211866914Y-99121315D01*
X211866914Y-99121315D02*
X212009771Y-99192744D01*
X212009771Y-99192744D02*
X212081200Y-99264172D01*
X212081200Y-99264172D02*
X212152628Y-99407029D01*
X212152628Y-99407029D02*
X212152628Y-99621315D01*
X212152628Y-98478458D02*
X211152628Y-98478458D01*
X211438342Y-98478458D02*
X211295485Y-98407029D01*
X211295485Y-98407029D02*
X211224057Y-98335601D01*
X211224057Y-98335601D02*
X211152628Y-98192743D01*
X211152628Y-98192743D02*
X211152628Y-98049886D01*
X210652628Y-96549887D02*
X210652628Y-95621315D01*
X210652628Y-95621315D02*
X211224057Y-96121315D01*
X211224057Y-96121315D02*
X211224057Y-95907030D01*
X211224057Y-95907030D02*
X211295485Y-95764173D01*
X211295485Y-95764173D02*
X211366914Y-95692744D01*
X211366914Y-95692744D02*
X211509771Y-95621315D01*
X211509771Y-95621315D02*
X211866914Y-95621315D01*
X211866914Y-95621315D02*
X212009771Y-95692744D01*
X212009771Y-95692744D02*
X212081200Y-95764173D01*
X212081200Y-95764173D02*
X212152628Y-95907030D01*
X212152628Y-95907030D02*
X212152628Y-96335601D01*
X212152628Y-96335601D02*
X212081200Y-96478458D01*
X212081200Y-96478458D02*
X212009771Y-96549887D01*
D12*
X170853558Y-49857733D02*
X172377368Y-49857733D01*
D11*
X208454666Y-117136819D02*
X208454666Y-117851104D01*
X208454666Y-117851104D02*
X208407047Y-117993961D01*
X208407047Y-117993961D02*
X208311809Y-118089200D01*
X208311809Y-118089200D02*
X208168952Y-118136819D01*
X208168952Y-118136819D02*
X208073714Y-118136819D01*
X209359428Y-117470152D02*
X209359428Y-118136819D01*
X209121333Y-117089200D02*
X208883238Y-117803485D01*
X208883238Y-117803485D02*
X209502285Y-117803485D01*
X185086666Y-46778819D02*
X185086666Y-47493104D01*
X185086666Y-47493104D02*
X185039047Y-47635961D01*
X185039047Y-47635961D02*
X184943809Y-47731200D01*
X184943809Y-47731200D02*
X184800952Y-47778819D01*
X184800952Y-47778819D02*
X184705714Y-47778819D01*
X185467619Y-46778819D02*
X186134285Y-46778819D01*
X186134285Y-46778819D02*
X185705714Y-47778819D01*
X156480819Y-95814094D02*
X155480819Y-95814094D01*
X155480819Y-95814094D02*
X155480819Y-95575999D01*
X155480819Y-95575999D02*
X155528438Y-95433142D01*
X155528438Y-95433142D02*
X155623676Y-95337904D01*
X155623676Y-95337904D02*
X155718914Y-95290285D01*
X155718914Y-95290285D02*
X155909390Y-95242666D01*
X155909390Y-95242666D02*
X156052247Y-95242666D01*
X156052247Y-95242666D02*
X156242723Y-95290285D01*
X156242723Y-95290285D02*
X156337961Y-95337904D01*
X156337961Y-95337904D02*
X156433200Y-95433142D01*
X156433200Y-95433142D02*
X156480819Y-95575999D01*
X156480819Y-95575999D02*
X156480819Y-95814094D01*
X156480819Y-94290285D02*
X156480819Y-94861713D01*
X156480819Y-94575999D02*
X155480819Y-94575999D01*
X155480819Y-94575999D02*
X155623676Y-94671237D01*
X155623676Y-94671237D02*
X155718914Y-94766475D01*
X155718914Y-94766475D02*
X155766533Y-94861713D01*
X156664819Y-100417904D02*
X155664819Y-100417904D01*
X156664819Y-99846476D02*
X156093390Y-100275047D01*
X155664819Y-99846476D02*
X156236247Y-100417904D01*
X197358095Y-45254819D02*
X197358095Y-46064342D01*
X197358095Y-46064342D02*
X197405714Y-46159580D01*
X197405714Y-46159580D02*
X197453333Y-46207200D01*
X197453333Y-46207200D02*
X197548571Y-46254819D01*
X197548571Y-46254819D02*
X197739047Y-46254819D01*
X197739047Y-46254819D02*
X197834285Y-46207200D01*
X197834285Y-46207200D02*
X197881904Y-46159580D01*
X197881904Y-46159580D02*
X197929523Y-46064342D01*
X197929523Y-46064342D02*
X197929523Y-45254819D01*
X198929523Y-46254819D02*
X198358095Y-46254819D01*
X198643809Y-46254819D02*
X198643809Y-45254819D01*
X198643809Y-45254819D02*
X198548571Y-45397676D01*
X198548571Y-45397676D02*
X198453333Y-45492914D01*
X198453333Y-45492914D02*
X198358095Y-45540533D01*
X217003333Y-92895580D02*
X216955714Y-92943200D01*
X216955714Y-92943200D02*
X216812857Y-92990819D01*
X216812857Y-92990819D02*
X216717619Y-92990819D01*
X216717619Y-92990819D02*
X216574762Y-92943200D01*
X216574762Y-92943200D02*
X216479524Y-92847961D01*
X216479524Y-92847961D02*
X216431905Y-92752723D01*
X216431905Y-92752723D02*
X216384286Y-92562247D01*
X216384286Y-92562247D02*
X216384286Y-92419390D01*
X216384286Y-92419390D02*
X216431905Y-92228914D01*
X216431905Y-92228914D02*
X216479524Y-92133676D01*
X216479524Y-92133676D02*
X216574762Y-92038438D01*
X216574762Y-92038438D02*
X216717619Y-91990819D01*
X216717619Y-91990819D02*
X216812857Y-91990819D01*
X216812857Y-91990819D02*
X216955714Y-92038438D01*
X216955714Y-92038438D02*
X217003333Y-92086057D01*
X217384286Y-92086057D02*
X217431905Y-92038438D01*
X217431905Y-92038438D02*
X217527143Y-91990819D01*
X217527143Y-91990819D02*
X217765238Y-91990819D01*
X217765238Y-91990819D02*
X217860476Y-92038438D01*
X217860476Y-92038438D02*
X217908095Y-92086057D01*
X217908095Y-92086057D02*
X217955714Y-92181295D01*
X217955714Y-92181295D02*
X217955714Y-92276533D01*
X217955714Y-92276533D02*
X217908095Y-92419390D01*
X217908095Y-92419390D02*
X217336667Y-92990819D01*
X217336667Y-92990819D02*
X217955714Y-92990819D01*
X197358095Y-69384819D02*
X197358095Y-70194342D01*
X197358095Y-70194342D02*
X197405714Y-70289580D01*
X197405714Y-70289580D02*
X197453333Y-70337200D01*
X197453333Y-70337200D02*
X197548571Y-70384819D01*
X197548571Y-70384819D02*
X197739047Y-70384819D01*
X197739047Y-70384819D02*
X197834285Y-70337200D01*
X197834285Y-70337200D02*
X197881904Y-70289580D01*
X197881904Y-70289580D02*
X197929523Y-70194342D01*
X197929523Y-70194342D02*
X197929523Y-69384819D01*
X198358095Y-69480057D02*
X198405714Y-69432438D01*
X198405714Y-69432438D02*
X198500952Y-69384819D01*
X198500952Y-69384819D02*
X198739047Y-69384819D01*
X198739047Y-69384819D02*
X198834285Y-69432438D01*
X198834285Y-69432438D02*
X198881904Y-69480057D01*
X198881904Y-69480057D02*
X198929523Y-69575295D01*
X198929523Y-69575295D02*
X198929523Y-69670533D01*
X198929523Y-69670533D02*
X198881904Y-69813390D01*
X198881904Y-69813390D02*
X198310476Y-70384819D01*
X198310476Y-70384819D02*
X198929523Y-70384819D01*
X217003333Y-69019580D02*
X216955714Y-69067200D01*
X216955714Y-69067200D02*
X216812857Y-69114819D01*
X216812857Y-69114819D02*
X216717619Y-69114819D01*
X216717619Y-69114819D02*
X216574762Y-69067200D01*
X216574762Y-69067200D02*
X216479524Y-68971961D01*
X216479524Y-68971961D02*
X216431905Y-68876723D01*
X216431905Y-68876723D02*
X216384286Y-68686247D01*
X216384286Y-68686247D02*
X216384286Y-68543390D01*
X216384286Y-68543390D02*
X216431905Y-68352914D01*
X216431905Y-68352914D02*
X216479524Y-68257676D01*
X216479524Y-68257676D02*
X216574762Y-68162438D01*
X216574762Y-68162438D02*
X216717619Y-68114819D01*
X216717619Y-68114819D02*
X216812857Y-68114819D01*
X216812857Y-68114819D02*
X216955714Y-68162438D01*
X216955714Y-68162438D02*
X217003333Y-68210057D01*
X217955714Y-69114819D02*
X217384286Y-69114819D01*
X217670000Y-69114819D02*
X217670000Y-68114819D01*
X217670000Y-68114819D02*
X217574762Y-68257676D01*
X217574762Y-68257676D02*
X217479524Y-68352914D01*
X217479524Y-68352914D02*
X217384286Y-68400533D01*
X158162666Y-69130819D02*
X158162666Y-69845104D01*
X158162666Y-69845104D02*
X158115047Y-69987961D01*
X158115047Y-69987961D02*
X158019809Y-70083200D01*
X158019809Y-70083200D02*
X157876952Y-70130819D01*
X157876952Y-70130819D02*
X157781714Y-70130819D01*
X159115047Y-69130819D02*
X158638857Y-69130819D01*
X158638857Y-69130819D02*
X158591238Y-69607009D01*
X158591238Y-69607009D02*
X158638857Y-69559390D01*
X158638857Y-69559390D02*
X158734095Y-69511771D01*
X158734095Y-69511771D02*
X158972190Y-69511771D01*
X158972190Y-69511771D02*
X159067428Y-69559390D01*
X159067428Y-69559390D02*
X159115047Y-69607009D01*
X159115047Y-69607009D02*
X159162666Y-69702247D01*
X159162666Y-69702247D02*
X159162666Y-69940342D01*
X159162666Y-69940342D02*
X159115047Y-70035580D01*
X159115047Y-70035580D02*
X159067428Y-70083200D01*
X159067428Y-70083200D02*
X158972190Y-70130819D01*
X158972190Y-70130819D02*
X158734095Y-70130819D01*
X158734095Y-70130819D02*
X158638857Y-70083200D01*
X158638857Y-70083200D02*
X158591238Y-70035580D01*
D10*
X180052419Y-57680115D02*
X179385752Y-57680115D01*
X179052419Y-57680115D02*
X179100038Y-57727734D01*
X179100038Y-57727734D02*
X179147657Y-57680115D01*
X179147657Y-57680115D02*
X179100038Y-57632496D01*
X179100038Y-57632496D02*
X179052419Y-57680115D01*
X179052419Y-57680115D02*
X179147657Y-57680115D01*
X179385752Y-57203925D02*
X180052419Y-57203925D01*
X179480990Y-57203925D02*
X179433371Y-57156306D01*
X179433371Y-57156306D02*
X179385752Y-57061068D01*
X179385752Y-57061068D02*
X179385752Y-56918211D01*
X179385752Y-56918211D02*
X179433371Y-56822973D01*
X179433371Y-56822973D02*
X179528609Y-56775354D01*
X179528609Y-56775354D02*
X180052419Y-56775354D01*
X160802419Y-58287258D02*
X160754800Y-58382496D01*
X160754800Y-58382496D02*
X160707180Y-58430115D01*
X160707180Y-58430115D02*
X160611942Y-58477734D01*
X160611942Y-58477734D02*
X160326228Y-58477734D01*
X160326228Y-58477734D02*
X160230990Y-58430115D01*
X160230990Y-58430115D02*
X160183371Y-58382496D01*
X160183371Y-58382496D02*
X160135752Y-58287258D01*
X160135752Y-58287258D02*
X160135752Y-58144401D01*
X160135752Y-58144401D02*
X160183371Y-58049163D01*
X160183371Y-58049163D02*
X160230990Y-58001544D01*
X160230990Y-58001544D02*
X160326228Y-57953925D01*
X160326228Y-57953925D02*
X160611942Y-57953925D01*
X160611942Y-57953925D02*
X160707180Y-58001544D01*
X160707180Y-58001544D02*
X160754800Y-58049163D01*
X160754800Y-58049163D02*
X160802419Y-58144401D01*
X160802419Y-58144401D02*
X160802419Y-58287258D01*
X160135752Y-57096782D02*
X160802419Y-57096782D01*
X160135752Y-57525353D02*
X160659561Y-57525353D01*
X160659561Y-57525353D02*
X160754800Y-57477734D01*
X160754800Y-57477734D02*
X160802419Y-57382496D01*
X160802419Y-57382496D02*
X160802419Y-57239639D01*
X160802419Y-57239639D02*
X160754800Y-57144401D01*
X160754800Y-57144401D02*
X160707180Y-57096782D01*
X160135752Y-56763448D02*
X160135752Y-56382496D01*
X159802419Y-56620591D02*
X160659561Y-56620591D01*
X160659561Y-56620591D02*
X160754800Y-56572972D01*
X160754800Y-56572972D02*
X160802419Y-56477734D01*
X160802419Y-56477734D02*
X160802419Y-56382496D01*
D11*
X217003333Y-116771580D02*
X216955714Y-116819200D01*
X216955714Y-116819200D02*
X216812857Y-116866819D01*
X216812857Y-116866819D02*
X216717619Y-116866819D01*
X216717619Y-116866819D02*
X216574762Y-116819200D01*
X216574762Y-116819200D02*
X216479524Y-116723961D01*
X216479524Y-116723961D02*
X216431905Y-116628723D01*
X216431905Y-116628723D02*
X216384286Y-116438247D01*
X216384286Y-116438247D02*
X216384286Y-116295390D01*
X216384286Y-116295390D02*
X216431905Y-116104914D01*
X216431905Y-116104914D02*
X216479524Y-116009676D01*
X216479524Y-116009676D02*
X216574762Y-115914438D01*
X216574762Y-115914438D02*
X216717619Y-115866819D01*
X216717619Y-115866819D02*
X216812857Y-115866819D01*
X216812857Y-115866819D02*
X216955714Y-115914438D01*
X216955714Y-115914438D02*
X217003333Y-115962057D01*
X217336667Y-115866819D02*
X217955714Y-115866819D01*
X217955714Y-115866819D02*
X217622381Y-116247771D01*
X217622381Y-116247771D02*
X217765238Y-116247771D01*
X217765238Y-116247771D02*
X217860476Y-116295390D01*
X217860476Y-116295390D02*
X217908095Y-116343009D01*
X217908095Y-116343009D02*
X217955714Y-116438247D01*
X217955714Y-116438247D02*
X217955714Y-116676342D01*
X217955714Y-116676342D02*
X217908095Y-116771580D01*
X217908095Y-116771580D02*
X217860476Y-116819200D01*
X217860476Y-116819200D02*
X217765238Y-116866819D01*
X217765238Y-116866819D02*
X217479524Y-116866819D01*
X217479524Y-116866819D02*
X217384286Y-116819200D01*
X217384286Y-116819200D02*
X217336667Y-116771580D01*
X197358095Y-93260819D02*
X197358095Y-94070342D01*
X197358095Y-94070342D02*
X197405714Y-94165580D01*
X197405714Y-94165580D02*
X197453333Y-94213200D01*
X197453333Y-94213200D02*
X197548571Y-94260819D01*
X197548571Y-94260819D02*
X197739047Y-94260819D01*
X197739047Y-94260819D02*
X197834285Y-94213200D01*
X197834285Y-94213200D02*
X197881904Y-94165580D01*
X197881904Y-94165580D02*
X197929523Y-94070342D01*
X197929523Y-94070342D02*
X197929523Y-93260819D01*
X198310476Y-93260819D02*
X198929523Y-93260819D01*
X198929523Y-93260819D02*
X198596190Y-93641771D01*
X198596190Y-93641771D02*
X198739047Y-93641771D01*
X198739047Y-93641771D02*
X198834285Y-93689390D01*
X198834285Y-93689390D02*
X198881904Y-93737009D01*
X198881904Y-93737009D02*
X198929523Y-93832247D01*
X198929523Y-93832247D02*
X198929523Y-94070342D01*
X198929523Y-94070342D02*
X198881904Y-94165580D01*
X198881904Y-94165580D02*
X198834285Y-94213200D01*
X198834285Y-94213200D02*
X198739047Y-94260819D01*
X198739047Y-94260819D02*
X198453333Y-94260819D01*
X198453333Y-94260819D02*
X198358095Y-94213200D01*
X198358095Y-94213200D02*
X198310476Y-94165580D01*
D13*
X192108000Y-118878000D02*
X192108000Y-123598000D01*
X192108000Y-120988000D02*
X192718000Y-120988000D01*
X192108000Y-122288000D02*
X192718000Y-122288000D01*
X192108000Y-123598000D02*
X210228000Y-123598000D01*
X192718000Y-119488000D02*
X192718000Y-122988000D01*
X192718000Y-122988000D02*
X194668000Y-122988000D01*
X194668000Y-122988000D02*
X194668000Y-123598000D01*
X195068000Y-119988000D02*
X195068000Y-119488000D01*
X195168000Y-119488000D02*
X195168000Y-119988000D01*
X195268000Y-119488000D02*
X195268000Y-119988000D01*
X195268000Y-119988000D02*
X195068000Y-119988000D01*
X197068000Y-119988000D02*
X197068000Y-119488000D01*
X197168000Y-119488000D02*
X197168000Y-119988000D01*
X197268000Y-119488000D02*
X197268000Y-119988000D01*
X197268000Y-119988000D02*
X197068000Y-119988000D01*
X199068000Y-119988000D02*
X199068000Y-119488000D01*
X199168000Y-119488000D02*
X199168000Y-119988000D01*
X199268000Y-119488000D02*
X199268000Y-119988000D01*
X199268000Y-119988000D02*
X199068000Y-119988000D01*
X201068000Y-119988000D02*
X201068000Y-119488000D01*
X201168000Y-119488000D02*
X201168000Y-119988000D01*
X201268000Y-119488000D02*
X201268000Y-119988000D01*
X201268000Y-119988000D02*
X201068000Y-119988000D01*
X203068000Y-119988000D02*
X203068000Y-119488000D01*
X203168000Y-119488000D02*
X203168000Y-119988000D01*
X203268000Y-119488000D02*
X203268000Y-119988000D01*
X203268000Y-119988000D02*
X203068000Y-119988000D01*
X205068000Y-119988000D02*
X205068000Y-119488000D01*
X205168000Y-119488000D02*
X205168000Y-119988000D01*
X205268000Y-119488000D02*
X205268000Y-119988000D01*
X205268000Y-119988000D02*
X205068000Y-119988000D01*
X207068000Y-119988000D02*
X207068000Y-119488000D01*
X207168000Y-119488000D02*
X207168000Y-119988000D01*
X207268000Y-119488000D02*
X207268000Y-119988000D01*
X207268000Y-119988000D02*
X207068000Y-119988000D01*
X207668000Y-122988000D02*
X209618000Y-122988000D01*
X207668000Y-123598000D02*
X207668000Y-122988000D01*
X208468000Y-123598000D02*
X208468000Y-123798000D01*
X208468000Y-123698000D02*
X208768000Y-123698000D01*
X208468000Y-123798000D02*
X208768000Y-123798000D01*
X208768000Y-123798000D02*
X208768000Y-123598000D01*
X209278000Y-123898000D02*
X210528000Y-123898000D01*
X209618000Y-119488000D02*
X192718000Y-119488000D01*
X209618000Y-122988000D02*
X209618000Y-119488000D01*
X210228000Y-118878000D02*
X192108000Y-118878000D01*
X210228000Y-120988000D02*
X209618000Y-120988000D01*
X210228000Y-122288000D02*
X209618000Y-122288000D01*
X210228000Y-123598000D02*
X210228000Y-118878000D01*
X210528000Y-123898000D02*
X210528000Y-122648000D01*
X167410000Y-42422000D02*
X167410000Y-45572000D01*
X167410000Y-45572000D02*
X170260000Y-48172000D01*
X170260000Y-39872000D02*
X167410000Y-42422000D01*
X170260000Y-48172000D02*
X183110000Y-48172000D01*
X183110000Y-39872000D02*
X170260000Y-39872000D01*
X183110000Y-48172000D02*
X183110000Y-39872000D01*
X157026000Y-96776000D02*
X159966000Y-96776000D01*
X157026000Y-96896000D02*
X159966000Y-96896000D01*
X157026000Y-97016000D02*
X159966000Y-97016000D01*
X158496000Y-91336000D02*
X158496000Y-92356000D01*
X158496000Y-98816000D02*
X158496000Y-97796000D01*
X157026000Y-97796000D02*
X159966000Y-97796000D01*
X159966000Y-92356000D01*
X157026000Y-92356000D01*
X157026000Y-97796000D01*
D14*
X187960000Y-47070000D02*
X187960000Y-67390000D01*
X189230000Y-47070000D02*
X187960000Y-47070000D01*
X189230000Y-67390000D02*
X187960000Y-67390000D01*
X204620000Y-47070000D02*
X191620000Y-47070000D01*
X204620000Y-67390000D02*
X191620000Y-67390000D01*
X207010000Y-47070000D02*
X208280000Y-47070000D01*
X207010000Y-67390000D02*
X208280000Y-67390000D01*
X208280000Y-67390000D02*
X208280000Y-47070000D01*
D15*
X205840000Y-67958200D02*
G75*
G02*
X205640000Y-67958200I-100000J0D01*
G01*
X205640000Y-67958200D02*
G75*
G02*
X205840000Y-67958200I100000J0D01*
G01*
D13*
X214012000Y-94712000D02*
X215392000Y-94712000D01*
X214012000Y-96092000D02*
X214012000Y-94712000D01*
X214012000Y-97362000D02*
X214012000Y-105092000D01*
X214012000Y-97362000D02*
X216772000Y-97362000D01*
X214012000Y-105092000D02*
X216772000Y-105092000D01*
X216772000Y-97362000D02*
X216772000Y-105092000D01*
X214012000Y-46960000D02*
X215392000Y-46960000D01*
X214012000Y-48340000D02*
X214012000Y-46960000D01*
X214012000Y-49610000D02*
X214012000Y-57340000D01*
X214012000Y-49610000D02*
X216772000Y-49610000D01*
X214012000Y-57340000D02*
X216772000Y-57340000D01*
X216772000Y-49610000D02*
X216772000Y-57340000D01*
X214012000Y-70836000D02*
X215392000Y-70836000D01*
X214012000Y-72216000D02*
X214012000Y-70836000D01*
X214012000Y-73486000D02*
X214012000Y-81216000D01*
X214012000Y-73486000D02*
X216772000Y-73486000D01*
X214012000Y-81216000D02*
X216772000Y-81216000D01*
X216772000Y-73486000D02*
X216772000Y-81216000D01*
X209436651Y-88497000D02*
X209436651Y-87431000D01*
X209476651Y-88732000D02*
X209476651Y-87196000D01*
X209516651Y-88911000D02*
X209516651Y-87017000D01*
X209556651Y-89061000D02*
X209556651Y-86867000D01*
X209596651Y-89192000D02*
X209596651Y-86736000D01*
X209636651Y-89310000D02*
X209636651Y-86618000D01*
X209676651Y-89417000D02*
X209676651Y-86511000D01*
X209716651Y-89516000D02*
X209716651Y-86412000D01*
X209756651Y-89608000D02*
X209756651Y-86320000D01*
X209796651Y-89695000D02*
X209796651Y-86233000D01*
X209836651Y-89777000D02*
X209836651Y-86151000D01*
X209876651Y-89854000D02*
X209876651Y-86074000D01*
X209916651Y-89928000D02*
X209916651Y-86000000D01*
X209956651Y-89998000D02*
X209956651Y-85930000D01*
X209996651Y-90065000D02*
X209996651Y-85863000D01*
X210036651Y-90129000D02*
X210036651Y-85799000D01*
X210076651Y-90191000D02*
X210076651Y-85737000D01*
X210116651Y-90251000D02*
X210116651Y-85677000D01*
X210156651Y-90308000D02*
X210156651Y-85620000D01*
X210196651Y-90364000D02*
X210196651Y-85564000D01*
X210236651Y-90417000D02*
X210236651Y-85511000D01*
X210276651Y-90469000D02*
X210276651Y-85459000D01*
X210316651Y-90519000D02*
X210316651Y-85409000D01*
X210356651Y-90568000D02*
X210356651Y-85360000D01*
X210396651Y-90615000D02*
X210396651Y-85313000D01*
X210436651Y-90660000D02*
X210436651Y-85268000D01*
X210476651Y-90705000D02*
X210476651Y-85223000D01*
X210516651Y-90748000D02*
X210516651Y-85180000D01*
X210556651Y-90790000D02*
X210556651Y-85138000D01*
X210596651Y-90831000D02*
X210596651Y-85097000D01*
X210636651Y-90870000D02*
X210636651Y-85058000D01*
X210676651Y-90909000D02*
X210676651Y-85019000D01*
X210716651Y-90946000D02*
X210716651Y-84982000D01*
X210756651Y-86924000D02*
X210756651Y-84945000D01*
X210756651Y-90983000D02*
X210756651Y-89004000D01*
X210796651Y-86924000D02*
X210796651Y-84909000D01*
X210796651Y-91019000D02*
X210796651Y-89004000D01*
X210836651Y-86924000D02*
X210836651Y-84875000D01*
X210836651Y-91053000D02*
X210836651Y-89004000D01*
X210876651Y-86924000D02*
X210876651Y-84841000D01*
X210876651Y-91087000D02*
X210876651Y-89004000D01*
X210916651Y-86924000D02*
X210916651Y-84808000D01*
X210916651Y-91120000D02*
X210916651Y-89004000D01*
X210956651Y-86924000D02*
X210956651Y-84776000D01*
X210956651Y-91152000D02*
X210956651Y-89004000D01*
X210996651Y-86924000D02*
X210996651Y-84745000D01*
X210996651Y-91183000D02*
X210996651Y-89004000D01*
X211036651Y-86924000D02*
X211036651Y-84714000D01*
X211036651Y-91214000D02*
X211036651Y-89004000D01*
X211076651Y-86924000D02*
X211076651Y-84684000D01*
X211076651Y-91244000D02*
X211076651Y-89004000D01*
X211116651Y-86924000D02*
X211116651Y-84655000D01*
X211116651Y-91273000D02*
X211116651Y-89004000D01*
X211156651Y-86924000D02*
X211156651Y-84627000D01*
X211156651Y-91301000D02*
X211156651Y-89004000D01*
X211196651Y-86924000D02*
X211196651Y-84599000D01*
X211196651Y-91329000D02*
X211196651Y-89004000D01*
X211236651Y-86924000D02*
X211236651Y-84572000D01*
X211236651Y-91356000D02*
X211236651Y-89004000D01*
X211276651Y-86924000D02*
X211276651Y-84546000D01*
X211276651Y-91382000D02*
X211276651Y-89004000D01*
X211316651Y-86924000D02*
X211316651Y-84521000D01*
X211316651Y-91407000D02*
X211316651Y-89004000D01*
X211356651Y-86924000D02*
X211356651Y-84496000D01*
X211356651Y-91432000D02*
X211356651Y-89004000D01*
X211396651Y-86924000D02*
X211396651Y-84471000D01*
X211396651Y-91457000D02*
X211396651Y-89004000D01*
X211436651Y-86924000D02*
X211436651Y-84448000D01*
X211436651Y-91480000D02*
X211436651Y-89004000D01*
X211476651Y-86924000D02*
X211476651Y-84425000D01*
X211476651Y-91503000D02*
X211476651Y-89004000D01*
X211516651Y-86924000D02*
X211516651Y-84402000D01*
X211516651Y-91526000D02*
X211516651Y-89004000D01*
X211556651Y-86924000D02*
X211556651Y-84380000D01*
X211556651Y-91548000D02*
X211556651Y-89004000D01*
X211596651Y-86924000D02*
X211596651Y-84359000D01*
X211596651Y-91569000D02*
X211596651Y-89004000D01*
X211636651Y-86924000D02*
X211636651Y-84338000D01*
X211636651Y-91590000D02*
X211636651Y-89004000D01*
X211676651Y-86924000D02*
X211676651Y-84318000D01*
X211676651Y-91610000D02*
X211676651Y-89004000D01*
X211716651Y-86924000D02*
X211716651Y-84298000D01*
X211716651Y-91630000D02*
X211716651Y-89004000D01*
X211756651Y-86924000D02*
X211756651Y-84279000D01*
X211756651Y-91649000D02*
X211756651Y-89004000D01*
X211796651Y-86924000D02*
X211796651Y-84260000D01*
X211796651Y-91668000D02*
X211796651Y-89004000D01*
X211836651Y-86924000D02*
X211836651Y-84242000D01*
X211836651Y-91686000D02*
X211836651Y-89004000D01*
X211876651Y-86924000D02*
X211876651Y-84224000D01*
X211876651Y-91704000D02*
X211876651Y-89004000D01*
X211916651Y-86924000D02*
X211916651Y-84207000D01*
X211916651Y-91721000D02*
X211916651Y-89004000D01*
X211956651Y-86924000D02*
X211956651Y-84191000D01*
X211956651Y-91737000D02*
X211956651Y-89004000D01*
X211996651Y-86924000D02*
X211996651Y-84175000D01*
X211996651Y-91753000D02*
X211996651Y-89004000D01*
X212036651Y-86924000D02*
X212036651Y-84159000D01*
X212036651Y-91769000D02*
X212036651Y-89004000D01*
X212076651Y-86924000D02*
X212076651Y-84144000D01*
X212076651Y-91784000D02*
X212076651Y-89004000D01*
X212116651Y-86924000D02*
X212116651Y-84129000D01*
X212116651Y-91799000D02*
X212116651Y-89004000D01*
X212156651Y-86924000D02*
X212156651Y-84115000D01*
X212156651Y-91813000D02*
X212156651Y-89004000D01*
X212196651Y-86924000D02*
X212196651Y-84101000D01*
X212196651Y-91827000D02*
X212196651Y-89004000D01*
X212236651Y-86924000D02*
X212236651Y-84088000D01*
X212236651Y-91840000D02*
X212236651Y-89004000D01*
X212276651Y-86924000D02*
X212276651Y-84075000D01*
X212276651Y-91853000D02*
X212276651Y-89004000D01*
X212316651Y-86924000D02*
X212316651Y-84063000D01*
X212316651Y-91865000D02*
X212316651Y-89004000D01*
X212356651Y-86924000D02*
X212356651Y-84051000D01*
X212356651Y-91877000D02*
X212356651Y-89004000D01*
X212396651Y-86924000D02*
X212396651Y-84039000D01*
X212396651Y-91889000D02*
X212396651Y-89004000D01*
X212436651Y-86924000D02*
X212436651Y-84028000D01*
X212436651Y-91900000D02*
X212436651Y-89004000D01*
X212476651Y-86924000D02*
X212476651Y-84017000D01*
X212476651Y-91911000D02*
X212476651Y-89004000D01*
X212516651Y-86924000D02*
X212516651Y-84007000D01*
X212516651Y-91921000D02*
X212516651Y-89004000D01*
X212556651Y-86924000D02*
X212556651Y-83997000D01*
X212556651Y-91931000D02*
X212556651Y-89004000D01*
X212596651Y-86924000D02*
X212596651Y-83988000D01*
X212596651Y-91940000D02*
X212596651Y-89004000D01*
X212636651Y-86924000D02*
X212636651Y-83979000D01*
X212636651Y-91949000D02*
X212636651Y-89004000D01*
X212676651Y-86924000D02*
X212676651Y-83971000D01*
X212676651Y-91957000D02*
X212676651Y-89004000D01*
X212716651Y-86924000D02*
X212716651Y-83962000D01*
X212716651Y-91966000D02*
X212716651Y-89004000D01*
X212756651Y-86924000D02*
X212756651Y-83955000D01*
X212756651Y-91973000D02*
X212756651Y-89004000D01*
X212796651Y-86924000D02*
X212796651Y-83947000D01*
X212796651Y-91981000D02*
X212796651Y-89004000D01*
X212836651Y-91987000D02*
X212836651Y-83941000D01*
X212876651Y-91994000D02*
X212876651Y-83934000D01*
X212916651Y-92000000D02*
X212916651Y-83928000D01*
X212956651Y-92006000D02*
X212956651Y-83922000D01*
X212996651Y-92011000D02*
X212996651Y-83917000D01*
X213036651Y-92016000D02*
X213036651Y-83912000D01*
X213076651Y-92020000D02*
X213076651Y-83908000D01*
X213116651Y-92025000D02*
X213116651Y-83903000D01*
X213156651Y-92028000D02*
X213156651Y-83900000D01*
X213196651Y-92032000D02*
X213196651Y-83896000D01*
X213236651Y-92034000D02*
X213236651Y-83894000D01*
X213276651Y-92037000D02*
X213276651Y-83891000D01*
X213316651Y-92039000D02*
X213316651Y-83889000D01*
X213356651Y-92041000D02*
X213356651Y-83887000D01*
X213396651Y-92042000D02*
X213396651Y-83886000D01*
X213436651Y-92043000D02*
X213436651Y-83885000D01*
X213476651Y-92044000D02*
X213476651Y-83884000D01*
X213516651Y-92044000D02*
X213516651Y-83884000D01*
X217526349Y-90679000D02*
X217526349Y-89879000D01*
X217926349Y-90279000D02*
X217126349Y-90279000D01*
X217636651Y-87964000D02*
G75*
G02*
X209396651Y-87964000I-4120000J0D01*
G01*
X209396651Y-87964000D02*
G75*
G02*
X217636651Y-87964000I4120000J0D01*
G01*
D14*
X187960000Y-70946000D02*
X187960000Y-91266000D01*
X189230000Y-70946000D02*
X187960000Y-70946000D01*
X189230000Y-91266000D02*
X187960000Y-91266000D01*
X204620000Y-70946000D02*
X191620000Y-70946000D01*
X204620000Y-91266000D02*
X191620000Y-91266000D01*
X207010000Y-70946000D02*
X208280000Y-70946000D01*
X207010000Y-91266000D02*
X208280000Y-91266000D01*
X208280000Y-91266000D02*
X208280000Y-70946000D01*
D15*
X205840000Y-91834200D02*
G75*
G02*
X205640000Y-91834200I-100000J0D01*
G01*
X205640000Y-91834200D02*
G75*
G02*
X205840000Y-91834200I100000J0D01*
G01*
D13*
X209436651Y-64621000D02*
X209436651Y-63555000D01*
X209476651Y-64856000D02*
X209476651Y-63320000D01*
X209516651Y-65035000D02*
X209516651Y-63141000D01*
X209556651Y-65185000D02*
X209556651Y-62991000D01*
X209596651Y-65316000D02*
X209596651Y-62860000D01*
X209636651Y-65434000D02*
X209636651Y-62742000D01*
X209676651Y-65541000D02*
X209676651Y-62635000D01*
X209716651Y-65640000D02*
X209716651Y-62536000D01*
X209756651Y-65732000D02*
X209756651Y-62444000D01*
X209796651Y-65819000D02*
X209796651Y-62357000D01*
X209836651Y-65901000D02*
X209836651Y-62275000D01*
X209876651Y-65978000D02*
X209876651Y-62198000D01*
X209916651Y-66052000D02*
X209916651Y-62124000D01*
X209956651Y-66122000D02*
X209956651Y-62054000D01*
X209996651Y-66189000D02*
X209996651Y-61987000D01*
X210036651Y-66253000D02*
X210036651Y-61923000D01*
X210076651Y-66315000D02*
X210076651Y-61861000D01*
X210116651Y-66375000D02*
X210116651Y-61801000D01*
X210156651Y-66432000D02*
X210156651Y-61744000D01*
X210196651Y-66488000D02*
X210196651Y-61688000D01*
X210236651Y-66541000D02*
X210236651Y-61635000D01*
X210276651Y-66593000D02*
X210276651Y-61583000D01*
X210316651Y-66643000D02*
X210316651Y-61533000D01*
X210356651Y-66692000D02*
X210356651Y-61484000D01*
X210396651Y-66739000D02*
X210396651Y-61437000D01*
X210436651Y-66784000D02*
X210436651Y-61392000D01*
X210476651Y-66829000D02*
X210476651Y-61347000D01*
X210516651Y-66872000D02*
X210516651Y-61304000D01*
X210556651Y-66914000D02*
X210556651Y-61262000D01*
X210596651Y-66955000D02*
X210596651Y-61221000D01*
X210636651Y-66994000D02*
X210636651Y-61182000D01*
X210676651Y-67033000D02*
X210676651Y-61143000D01*
X210716651Y-67070000D02*
X210716651Y-61106000D01*
X210756651Y-63048000D02*
X210756651Y-61069000D01*
X210756651Y-67107000D02*
X210756651Y-65128000D01*
X210796651Y-63048000D02*
X210796651Y-61033000D01*
X210796651Y-67143000D02*
X210796651Y-65128000D01*
X210836651Y-63048000D02*
X210836651Y-60999000D01*
X210836651Y-67177000D02*
X210836651Y-65128000D01*
X210876651Y-63048000D02*
X210876651Y-60965000D01*
X210876651Y-67211000D02*
X210876651Y-65128000D01*
X210916651Y-63048000D02*
X210916651Y-60932000D01*
X210916651Y-67244000D02*
X210916651Y-65128000D01*
X210956651Y-63048000D02*
X210956651Y-60900000D01*
X210956651Y-67276000D02*
X210956651Y-65128000D01*
X210996651Y-63048000D02*
X210996651Y-60869000D01*
X210996651Y-67307000D02*
X210996651Y-65128000D01*
X211036651Y-63048000D02*
X211036651Y-60838000D01*
X211036651Y-67338000D02*
X211036651Y-65128000D01*
X211076651Y-63048000D02*
X211076651Y-60808000D01*
X211076651Y-67368000D02*
X211076651Y-65128000D01*
X211116651Y-63048000D02*
X211116651Y-60779000D01*
X211116651Y-67397000D02*
X211116651Y-65128000D01*
X211156651Y-63048000D02*
X211156651Y-60751000D01*
X211156651Y-67425000D02*
X211156651Y-65128000D01*
X211196651Y-63048000D02*
X211196651Y-60723000D01*
X211196651Y-67453000D02*
X211196651Y-65128000D01*
X211236651Y-63048000D02*
X211236651Y-60696000D01*
X211236651Y-67480000D02*
X211236651Y-65128000D01*
X211276651Y-63048000D02*
X211276651Y-60670000D01*
X211276651Y-67506000D02*
X211276651Y-65128000D01*
X211316651Y-63048000D02*
X211316651Y-60645000D01*
X211316651Y-67531000D02*
X211316651Y-65128000D01*
X211356651Y-63048000D02*
X211356651Y-60620000D01*
X211356651Y-67556000D02*
X211356651Y-65128000D01*
X211396651Y-63048000D02*
X211396651Y-60595000D01*
X211396651Y-67581000D02*
X211396651Y-65128000D01*
X211436651Y-63048000D02*
X211436651Y-60572000D01*
X211436651Y-67604000D02*
X211436651Y-65128000D01*
X211476651Y-63048000D02*
X211476651Y-60549000D01*
X211476651Y-67627000D02*
X211476651Y-65128000D01*
X211516651Y-63048000D02*
X211516651Y-60526000D01*
X211516651Y-67650000D02*
X211516651Y-65128000D01*
X211556651Y-63048000D02*
X211556651Y-60504000D01*
X211556651Y-67672000D02*
X211556651Y-65128000D01*
X211596651Y-63048000D02*
X211596651Y-60483000D01*
X211596651Y-67693000D02*
X211596651Y-65128000D01*
X211636651Y-63048000D02*
X211636651Y-60462000D01*
X211636651Y-67714000D02*
X211636651Y-65128000D01*
X211676651Y-63048000D02*
X211676651Y-60442000D01*
X211676651Y-67734000D02*
X211676651Y-65128000D01*
X211716651Y-63048000D02*
X211716651Y-60422000D01*
X211716651Y-67754000D02*
X211716651Y-65128000D01*
X211756651Y-63048000D02*
X211756651Y-60403000D01*
X211756651Y-67773000D02*
X211756651Y-65128000D01*
X211796651Y-63048000D02*
X211796651Y-60384000D01*
X211796651Y-67792000D02*
X211796651Y-65128000D01*
X211836651Y-63048000D02*
X211836651Y-60366000D01*
X211836651Y-67810000D02*
X211836651Y-65128000D01*
X211876651Y-63048000D02*
X211876651Y-60348000D01*
X211876651Y-67828000D02*
X211876651Y-65128000D01*
X211916651Y-63048000D02*
X211916651Y-60331000D01*
X211916651Y-67845000D02*
X211916651Y-65128000D01*
X211956651Y-63048000D02*
X211956651Y-60315000D01*
X211956651Y-67861000D02*
X211956651Y-65128000D01*
X211996651Y-63048000D02*
X211996651Y-60299000D01*
X211996651Y-67877000D02*
X211996651Y-65128000D01*
X212036651Y-63048000D02*
X212036651Y-60283000D01*
X212036651Y-67893000D02*
X212036651Y-65128000D01*
X212076651Y-63048000D02*
X212076651Y-60268000D01*
X212076651Y-67908000D02*
X212076651Y-65128000D01*
X212116651Y-63048000D02*
X212116651Y-60253000D01*
X212116651Y-67923000D02*
X212116651Y-65128000D01*
X212156651Y-63048000D02*
X212156651Y-60239000D01*
X212156651Y-67937000D02*
X212156651Y-65128000D01*
X212196651Y-63048000D02*
X212196651Y-60225000D01*
X212196651Y-67951000D02*
X212196651Y-65128000D01*
X212236651Y-63048000D02*
X212236651Y-60212000D01*
X212236651Y-67964000D02*
X212236651Y-65128000D01*
X212276651Y-63048000D02*
X212276651Y-60199000D01*
X212276651Y-67977000D02*
X212276651Y-65128000D01*
X212316651Y-63048000D02*
X212316651Y-60187000D01*
X212316651Y-67989000D02*
X212316651Y-65128000D01*
X212356651Y-63048000D02*
X212356651Y-60175000D01*
X212356651Y-68001000D02*
X212356651Y-65128000D01*
X212396651Y-63048000D02*
X212396651Y-60163000D01*
X212396651Y-68013000D02*
X212396651Y-65128000D01*
X212436651Y-63048000D02*
X212436651Y-60152000D01*
X212436651Y-68024000D02*
X212436651Y-65128000D01*
X212476651Y-63048000D02*
X212476651Y-60141000D01*
X212476651Y-68035000D02*
X212476651Y-65128000D01*
X212516651Y-63048000D02*
X212516651Y-60131000D01*
X212516651Y-68045000D02*
X212516651Y-65128000D01*
X212556651Y-63048000D02*
X212556651Y-60121000D01*
X212556651Y-68055000D02*
X212556651Y-65128000D01*
X212596651Y-63048000D02*
X212596651Y-60112000D01*
X212596651Y-68064000D02*
X212596651Y-65128000D01*
X212636651Y-63048000D02*
X212636651Y-60103000D01*
X212636651Y-68073000D02*
X212636651Y-65128000D01*
X212676651Y-63048000D02*
X212676651Y-60095000D01*
X212676651Y-68081000D02*
X212676651Y-65128000D01*
X212716651Y-63048000D02*
X212716651Y-60086000D01*
X212716651Y-68090000D02*
X212716651Y-65128000D01*
X212756651Y-63048000D02*
X212756651Y-60079000D01*
X212756651Y-68097000D02*
X212756651Y-65128000D01*
X212796651Y-63048000D02*
X212796651Y-60071000D01*
X212796651Y-68105000D02*
X212796651Y-65128000D01*
X212836651Y-68111000D02*
X212836651Y-60065000D01*
X212876651Y-68118000D02*
X212876651Y-60058000D01*
X212916651Y-68124000D02*
X212916651Y-60052000D01*
X212956651Y-68130000D02*
X212956651Y-60046000D01*
X212996651Y-68135000D02*
X212996651Y-60041000D01*
X213036651Y-68140000D02*
X213036651Y-60036000D01*
X213076651Y-68144000D02*
X213076651Y-60032000D01*
X213116651Y-68149000D02*
X213116651Y-60027000D01*
X213156651Y-68152000D02*
X213156651Y-60024000D01*
X213196651Y-68156000D02*
X213196651Y-60020000D01*
X213236651Y-68158000D02*
X213236651Y-60018000D01*
X213276651Y-68161000D02*
X213276651Y-60015000D01*
X213316651Y-68163000D02*
X213316651Y-60013000D01*
X213356651Y-68165000D02*
X213356651Y-60011000D01*
X213396651Y-68166000D02*
X213396651Y-60010000D01*
X213436651Y-68167000D02*
X213436651Y-60009000D01*
X213476651Y-68168000D02*
X213476651Y-60008000D01*
X213516651Y-68168000D02*
X213516651Y-60008000D01*
X217526349Y-66803000D02*
X217526349Y-66003000D01*
X217926349Y-66403000D02*
X217126349Y-66403000D01*
X217636651Y-64088000D02*
G75*
G02*
X209396651Y-64088000I-4120000J0D01*
G01*
X209396651Y-64088000D02*
G75*
G02*
X217636651Y-64088000I4120000J0D01*
G01*
X155328000Y-80374000D02*
X155328000Y-81624000D01*
X155328000Y-81624000D02*
X156578000Y-81624000D01*
X155428000Y-79564000D02*
X155428000Y-79864000D01*
X155428000Y-79864000D02*
X155628000Y-79864000D01*
X155528000Y-79564000D02*
X155528000Y-79864000D01*
X155628000Y-71204000D02*
X155628000Y-81324000D01*
X155628000Y-78764000D02*
X156238000Y-78764000D01*
X155628000Y-79564000D02*
X155428000Y-79564000D01*
X155628000Y-81324000D02*
X160348000Y-81324000D01*
X156238000Y-71814000D02*
X156238000Y-73764000D01*
X156238000Y-73764000D02*
X155628000Y-73764000D01*
X156238000Y-78764000D02*
X156238000Y-80714000D01*
X156238000Y-80714000D02*
X159738000Y-80714000D01*
X156938000Y-71204000D02*
X156938000Y-71814000D01*
X156938000Y-81324000D02*
X156938000Y-80714000D01*
X158238000Y-71204000D02*
X158238000Y-71814000D01*
X158238000Y-81324000D02*
X158238000Y-80714000D01*
X159238000Y-74164000D02*
X159738000Y-74164000D01*
X159238000Y-74364000D02*
X159238000Y-74164000D01*
X159238000Y-76164000D02*
X159738000Y-76164000D01*
X159238000Y-76364000D02*
X159238000Y-76164000D01*
X159238000Y-78164000D02*
X159738000Y-78164000D01*
X159238000Y-78364000D02*
X159238000Y-78164000D01*
X159738000Y-71814000D02*
X156238000Y-71814000D01*
X159738000Y-74264000D02*
X159238000Y-74264000D01*
X159738000Y-74364000D02*
X159238000Y-74364000D01*
X159738000Y-76264000D02*
X159238000Y-76264000D01*
X159738000Y-76364000D02*
X159238000Y-76364000D01*
X159738000Y-78264000D02*
X159238000Y-78264000D01*
X159738000Y-78364000D02*
X159238000Y-78364000D01*
X159738000Y-80714000D02*
X159738000Y-71814000D01*
X160348000Y-71204000D02*
X155628000Y-71204000D01*
X160348000Y-81324000D02*
X160348000Y-71204000D01*
X161856000Y-74966000D02*
X161856000Y-74546000D01*
X161856000Y-77506000D02*
X161856000Y-77086000D01*
X161856000Y-80046000D02*
X161856000Y-79626000D01*
X161856000Y-82586000D02*
X161856000Y-82166000D01*
X161856000Y-85126000D02*
X161856000Y-84706000D01*
X161856000Y-87666000D02*
X161856000Y-87246000D01*
X161856000Y-90206000D02*
X161856000Y-89786000D01*
X161856000Y-92746000D02*
X161856000Y-92326000D01*
X161856000Y-95286000D02*
X161856000Y-94866000D01*
X161856000Y-97826000D02*
X161856000Y-97406000D01*
X161856000Y-100366000D02*
X161856000Y-99946000D01*
X161856000Y-102906000D02*
X161856000Y-102486000D01*
X161856000Y-105446000D02*
X161856000Y-105026000D01*
X161856000Y-107986000D02*
X161856000Y-107566000D01*
X161856000Y-110526000D02*
X161856000Y-110106000D01*
X161856000Y-113066000D02*
X161856000Y-112646000D01*
X161856000Y-115606000D02*
X161856000Y-115186000D01*
X161856000Y-118146000D02*
X161856000Y-117726000D01*
X161856000Y-120686000D02*
X161856000Y-120266000D01*
X162196000Y-72426063D02*
X162196000Y-72069000D01*
X162196000Y-74966000D02*
X162196000Y-74546000D01*
X162196000Y-77506000D02*
X162196000Y-77086000D01*
X162196000Y-80046000D02*
X162196000Y-79626000D01*
X162196000Y-82586000D02*
X162196000Y-82166000D01*
X162196000Y-85126000D02*
X162196000Y-84706000D01*
X162196000Y-87666000D02*
X162196000Y-87246000D01*
X162196000Y-90206000D02*
X162196000Y-89786000D01*
X162196000Y-92746000D02*
X162196000Y-92326000D01*
X162196000Y-95286000D02*
X162196000Y-94866000D01*
X162196000Y-97826000D02*
X162196000Y-97406000D01*
X162196000Y-100366000D02*
X162196000Y-99946000D01*
X162196000Y-102906000D02*
X162196000Y-102486000D01*
X162196000Y-105446000D02*
X162196000Y-105026000D01*
X162196000Y-107986000D02*
X162196000Y-107566000D01*
X162196000Y-110526000D02*
X162196000Y-110106000D01*
X162196000Y-113066000D02*
X162196000Y-112646000D01*
X162196000Y-115606000D02*
X162196000Y-115186000D01*
X162196000Y-118146000D02*
X162196000Y-117726000D01*
X162196000Y-120686000D02*
X162196000Y-120266000D01*
X162196000Y-122805937D02*
X162196000Y-123163000D01*
X162466000Y-123226000D02*
X164956000Y-123226000D01*
X164956000Y-72919520D02*
X164956000Y-72006000D01*
X164956000Y-119919520D02*
X164956000Y-75312480D01*
X164956000Y-123226000D02*
X164956000Y-122312480D01*
X166303939Y-72006000D02*
X162466000Y-72006000D01*
X166303939Y-123226000D02*
X164956000Y-123226000D01*
X167228061Y-72006000D02*
X168866000Y-72006000D01*
X168231000Y-123226000D02*
X167228061Y-123226000D01*
X168566000Y-119922000D02*
X168566000Y-118706000D01*
X168566000Y-123226000D02*
X168566000Y-122310000D01*
X168862090Y-118706000D02*
X168566000Y-118706000D01*
X168866000Y-72006000D02*
X176066000Y-72006000D01*
X173712090Y-118706000D02*
X171219910Y-118706000D01*
X176066000Y-72006000D02*
X177703939Y-72006000D01*
X176366000Y-118706000D02*
X176069910Y-118706000D01*
X176366000Y-119922000D02*
X176366000Y-118706000D01*
X176366000Y-123226000D02*
X176366000Y-122310000D01*
X176701000Y-123226000D02*
X168231000Y-123226000D01*
X177703939Y-123226000D02*
X176701000Y-123226000D01*
X179976000Y-72919520D02*
X179976000Y-72006000D01*
X179976000Y-119919520D02*
X179976000Y-75312480D01*
X179976000Y-123226000D02*
X178628060Y-123226000D01*
X179976000Y-123226000D02*
X179976000Y-122312480D01*
X182466000Y-72006000D02*
X178628061Y-72006000D01*
X182466000Y-123226000D02*
X179976000Y-123226000D01*
X182736000Y-72426063D02*
X182736000Y-72069000D01*
X182736000Y-74966000D02*
X182736000Y-74546000D01*
X182736000Y-77506000D02*
X182736000Y-77086000D01*
X182736000Y-80046000D02*
X182736000Y-79626000D01*
X182736000Y-82586000D02*
X182736000Y-82166000D01*
X182736000Y-85126000D02*
X182736000Y-84706000D01*
X182736000Y-87666000D02*
X182736000Y-87246000D01*
X182736000Y-90206000D02*
X182736000Y-89786000D01*
X182736000Y-92746000D02*
X182736000Y-92326000D01*
X182736000Y-95286000D02*
X182736000Y-94866000D01*
X182736000Y-97826000D02*
X182736000Y-97406000D01*
X182736000Y-100366000D02*
X182736000Y-99946000D01*
X182736000Y-102906000D02*
X182736000Y-102486000D01*
X182736000Y-105446000D02*
X182736000Y-105026000D01*
X182736000Y-107986000D02*
X182736000Y-107566000D01*
X182736000Y-110526000D02*
X182736000Y-110106000D01*
X182736000Y-113066000D02*
X182736000Y-112646000D01*
X182736000Y-115606000D02*
X182736000Y-115186000D01*
X182736000Y-118146000D02*
X182736000Y-117726000D01*
X182736000Y-120686000D02*
X182736000Y-120266000D01*
X182736000Y-122805937D02*
X182736000Y-123163000D01*
X183045676Y-122806000D02*
X183556000Y-122806000D01*
X183076000Y-74966000D02*
X183076000Y-74546000D01*
X183076000Y-77506000D02*
X183076000Y-77086000D01*
X183076000Y-80046000D02*
X183076000Y-79626000D01*
X183076000Y-82586000D02*
X183076000Y-82166000D01*
X183076000Y-85126000D02*
X183076000Y-84706000D01*
X183076000Y-87666000D02*
X183076000Y-87246000D01*
X183076000Y-90206000D02*
X183076000Y-89786000D01*
X183076000Y-92746000D02*
X183076000Y-92326000D01*
X183076000Y-95286000D02*
X183076000Y-94866000D01*
X183076000Y-97826000D02*
X183076000Y-97406000D01*
X183076000Y-100366000D02*
X183076000Y-99946000D01*
X183076000Y-102906000D02*
X183076000Y-102486000D01*
X183076000Y-105446000D02*
X183076000Y-105026000D01*
X183076000Y-107986000D02*
X183076000Y-107566000D01*
X183076000Y-110526000D02*
X183076000Y-110106000D01*
X183076000Y-113066000D02*
X183076000Y-112646000D01*
X183076000Y-115606000D02*
X183076000Y-115186000D01*
X183076000Y-118146000D02*
X183076000Y-117726000D01*
X183076000Y-120686000D02*
X183076000Y-120266000D01*
X183076000Y-120686000D02*
X183556000Y-120686000D01*
X161886324Y-72426063D02*
G75*
G02*
X162466000Y-72005931I579676J-189837D01*
G01*
X162466000Y-123226000D02*
G75*
G02*
X161886324Y-122805937I0J610000D01*
G01*
X182466000Y-72006000D02*
G75*
G02*
X183045676Y-72426063I-1J-610002D01*
G01*
X183045676Y-122806000D02*
G75*
G02*
X182466000Y-123226000I-579692J190051D01*
G01*
D10*
X161180000Y-63734000D02*
X178680000Y-63734000D01*
X178680000Y-51234000D01*
X161180000Y-51234000D01*
X161180000Y-63734000D01*
D13*
X209436651Y-112373000D02*
X209436651Y-111307000D01*
X209476651Y-112608000D02*
X209476651Y-111072000D01*
X209516651Y-112787000D02*
X209516651Y-110893000D01*
X209556651Y-112937000D02*
X209556651Y-110743000D01*
X209596651Y-113068000D02*
X209596651Y-110612000D01*
X209636651Y-113186000D02*
X209636651Y-110494000D01*
X209676651Y-113293000D02*
X209676651Y-110387000D01*
X209716651Y-113392000D02*
X209716651Y-110288000D01*
X209756651Y-113484000D02*
X209756651Y-110196000D01*
X209796651Y-113571000D02*
X209796651Y-110109000D01*
X209836651Y-113653000D02*
X209836651Y-110027000D01*
X209876651Y-113730000D02*
X209876651Y-109950000D01*
X209916651Y-113804000D02*
X209916651Y-109876000D01*
X209956651Y-113874000D02*
X209956651Y-109806000D01*
X209996651Y-113941000D02*
X209996651Y-109739000D01*
X210036651Y-114005000D02*
X210036651Y-109675000D01*
X210076651Y-114067000D02*
X210076651Y-109613000D01*
X210116651Y-114127000D02*
X210116651Y-109553000D01*
X210156651Y-114184000D02*
X210156651Y-109496000D01*
X210196651Y-114240000D02*
X210196651Y-109440000D01*
X210236651Y-114293000D02*
X210236651Y-109387000D01*
X210276651Y-114345000D02*
X210276651Y-109335000D01*
X210316651Y-114395000D02*
X210316651Y-109285000D01*
X210356651Y-114444000D02*
X210356651Y-109236000D01*
X210396651Y-114491000D02*
X210396651Y-109189000D01*
X210436651Y-114536000D02*
X210436651Y-109144000D01*
X210476651Y-114581000D02*
X210476651Y-109099000D01*
X210516651Y-114624000D02*
X210516651Y-109056000D01*
X210556651Y-114666000D02*
X210556651Y-109014000D01*
X210596651Y-114707000D02*
X210596651Y-108973000D01*
X210636651Y-114746000D02*
X210636651Y-108934000D01*
X210676651Y-114785000D02*
X210676651Y-108895000D01*
X210716651Y-114822000D02*
X210716651Y-108858000D01*
X210756651Y-110800000D02*
X210756651Y-108821000D01*
X210756651Y-114859000D02*
X210756651Y-112880000D01*
X210796651Y-110800000D02*
X210796651Y-108785000D01*
X210796651Y-114895000D02*
X210796651Y-112880000D01*
X210836651Y-110800000D02*
X210836651Y-108751000D01*
X210836651Y-114929000D02*
X210836651Y-112880000D01*
X210876651Y-110800000D02*
X210876651Y-108717000D01*
X210876651Y-114963000D02*
X210876651Y-112880000D01*
X210916651Y-110800000D02*
X210916651Y-108684000D01*
X210916651Y-114996000D02*
X210916651Y-112880000D01*
X210956651Y-110800000D02*
X210956651Y-108652000D01*
X210956651Y-115028000D02*
X210956651Y-112880000D01*
X210996651Y-110800000D02*
X210996651Y-108621000D01*
X210996651Y-115059000D02*
X210996651Y-112880000D01*
X211036651Y-110800000D02*
X211036651Y-108590000D01*
X211036651Y-115090000D02*
X211036651Y-112880000D01*
X211076651Y-110800000D02*
X211076651Y-108560000D01*
X211076651Y-115120000D02*
X211076651Y-112880000D01*
X211116651Y-110800000D02*
X211116651Y-108531000D01*
X211116651Y-115149000D02*
X211116651Y-112880000D01*
X211156651Y-110800000D02*
X211156651Y-108503000D01*
X211156651Y-115177000D02*
X211156651Y-112880000D01*
X211196651Y-110800000D02*
X211196651Y-108475000D01*
X211196651Y-115205000D02*
X211196651Y-112880000D01*
X211236651Y-110800000D02*
X211236651Y-108448000D01*
X211236651Y-115232000D02*
X211236651Y-112880000D01*
X211276651Y-110800000D02*
X211276651Y-108422000D01*
X211276651Y-115258000D02*
X211276651Y-112880000D01*
X211316651Y-110800000D02*
X211316651Y-108397000D01*
X211316651Y-115283000D02*
X211316651Y-112880000D01*
X211356651Y-110800000D02*
X211356651Y-108372000D01*
X211356651Y-115308000D02*
X211356651Y-112880000D01*
X211396651Y-110800000D02*
X211396651Y-108347000D01*
X211396651Y-115333000D02*
X211396651Y-112880000D01*
X211436651Y-110800000D02*
X211436651Y-108324000D01*
X211436651Y-115356000D02*
X211436651Y-112880000D01*
X211476651Y-110800000D02*
X211476651Y-108301000D01*
X211476651Y-115379000D02*
X211476651Y-112880000D01*
X211516651Y-110800000D02*
X211516651Y-108278000D01*
X211516651Y-115402000D02*
X211516651Y-112880000D01*
X211556651Y-110800000D02*
X211556651Y-108256000D01*
X211556651Y-115424000D02*
X211556651Y-112880000D01*
X211596651Y-110800000D02*
X211596651Y-108235000D01*
X211596651Y-115445000D02*
X211596651Y-112880000D01*
X211636651Y-110800000D02*
X211636651Y-108214000D01*
X211636651Y-115466000D02*
X211636651Y-112880000D01*
X211676651Y-110800000D02*
X211676651Y-108194000D01*
X211676651Y-115486000D02*
X211676651Y-112880000D01*
X211716651Y-110800000D02*
X211716651Y-108174000D01*
X211716651Y-115506000D02*
X211716651Y-112880000D01*
X211756651Y-110800000D02*
X211756651Y-108155000D01*
X211756651Y-115525000D02*
X211756651Y-112880000D01*
X211796651Y-110800000D02*
X211796651Y-108136000D01*
X211796651Y-115544000D02*
X211796651Y-112880000D01*
X211836651Y-110800000D02*
X211836651Y-108118000D01*
X211836651Y-115562000D02*
X211836651Y-112880000D01*
X211876651Y-110800000D02*
X211876651Y-108100000D01*
X211876651Y-115580000D02*
X211876651Y-112880000D01*
X211916651Y-110800000D02*
X211916651Y-108083000D01*
X211916651Y-115597000D02*
X211916651Y-112880000D01*
X211956651Y-110800000D02*
X211956651Y-108067000D01*
X211956651Y-115613000D02*
X211956651Y-112880000D01*
X211996651Y-110800000D02*
X211996651Y-108051000D01*
X211996651Y-115629000D02*
X211996651Y-112880000D01*
X212036651Y-110800000D02*
X212036651Y-108035000D01*
X212036651Y-115645000D02*
X212036651Y-112880000D01*
X212076651Y-110800000D02*
X212076651Y-108020000D01*
X212076651Y-115660000D02*
X212076651Y-112880000D01*
X212116651Y-110800000D02*
X212116651Y-108005000D01*
X212116651Y-115675000D02*
X212116651Y-112880000D01*
X212156651Y-110800000D02*
X212156651Y-107991000D01*
X212156651Y-115689000D02*
X212156651Y-112880000D01*
X212196651Y-110800000D02*
X212196651Y-107977000D01*
X212196651Y-115703000D02*
X212196651Y-112880000D01*
X212236651Y-110800000D02*
X212236651Y-107964000D01*
X212236651Y-115716000D02*
X212236651Y-112880000D01*
X212276651Y-110800000D02*
X212276651Y-107951000D01*
X212276651Y-115729000D02*
X212276651Y-112880000D01*
X212316651Y-110800000D02*
X212316651Y-107939000D01*
X212316651Y-115741000D02*
X212316651Y-112880000D01*
X212356651Y-110800000D02*
X212356651Y-107927000D01*
X212356651Y-115753000D02*
X212356651Y-112880000D01*
X212396651Y-110800000D02*
X212396651Y-107915000D01*
X212396651Y-115765000D02*
X212396651Y-112880000D01*
X212436651Y-110800000D02*
X212436651Y-107904000D01*
X212436651Y-115776000D02*
X212436651Y-112880000D01*
X212476651Y-110800000D02*
X212476651Y-107893000D01*
X212476651Y-115787000D02*
X212476651Y-112880000D01*
X212516651Y-110800000D02*
X212516651Y-107883000D01*
X212516651Y-115797000D02*
X212516651Y-112880000D01*
X212556651Y-110800000D02*
X212556651Y-107873000D01*
X212556651Y-115807000D02*
X212556651Y-112880000D01*
X212596651Y-110800000D02*
X212596651Y-107864000D01*
X212596651Y-115816000D02*
X212596651Y-112880000D01*
X212636651Y-110800000D02*
X212636651Y-107855000D01*
X212636651Y-115825000D02*
X212636651Y-112880000D01*
X212676651Y-110800000D02*
X212676651Y-107847000D01*
X212676651Y-115833000D02*
X212676651Y-112880000D01*
X212716651Y-110800000D02*
X212716651Y-107838000D01*
X212716651Y-115842000D02*
X212716651Y-112880000D01*
X212756651Y-110800000D02*
X212756651Y-107831000D01*
X212756651Y-115849000D02*
X212756651Y-112880000D01*
X212796651Y-110800000D02*
X212796651Y-107823000D01*
X212796651Y-115857000D02*
X212796651Y-112880000D01*
X212836651Y-115863000D02*
X212836651Y-107817000D01*
X212876651Y-115870000D02*
X212876651Y-107810000D01*
X212916651Y-115876000D02*
X212916651Y-107804000D01*
X212956651Y-115882000D02*
X212956651Y-107798000D01*
X212996651Y-115887000D02*
X212996651Y-107793000D01*
X213036651Y-115892000D02*
X213036651Y-107788000D01*
X213076651Y-115896000D02*
X213076651Y-107784000D01*
X213116651Y-115901000D02*
X213116651Y-107779000D01*
X213156651Y-115904000D02*
X213156651Y-107776000D01*
X213196651Y-115908000D02*
X213196651Y-107772000D01*
X213236651Y-115910000D02*
X213236651Y-107770000D01*
X213276651Y-115913000D02*
X213276651Y-107767000D01*
X213316651Y-115915000D02*
X213316651Y-107765000D01*
X213356651Y-115917000D02*
X213356651Y-107763000D01*
X213396651Y-115918000D02*
X213396651Y-107762000D01*
X213436651Y-115919000D02*
X213436651Y-107761000D01*
X213476651Y-115920000D02*
X213476651Y-107760000D01*
X213516651Y-115920000D02*
X213516651Y-107760000D01*
X217526349Y-114555000D02*
X217526349Y-113755000D01*
X217926349Y-114155000D02*
X217126349Y-114155000D01*
X217636651Y-111840000D02*
G75*
G02*
X209396651Y-111840000I-4120000J0D01*
G01*
X209396651Y-111840000D02*
G75*
G02*
X217636651Y-111840000I4120000J0D01*
G01*
D14*
X187960000Y-94822000D02*
X187960000Y-115142000D01*
X189230000Y-94822000D02*
X187960000Y-94822000D01*
X189230000Y-115142000D02*
X187960000Y-115142000D01*
X204620000Y-94822000D02*
X191620000Y-94822000D01*
X204620000Y-115142000D02*
X191620000Y-115142000D01*
X207010000Y-94822000D02*
X208280000Y-94822000D01*
X207010000Y-115142000D02*
X208280000Y-115142000D01*
X208280000Y-115142000D02*
X208280000Y-94822000D01*
D15*
X205840000Y-115710200D02*
G75*
G02*
X205640000Y-115710200I-100000J0D01*
G01*
X205640000Y-115710200D02*
G75*
G02*
X205840000Y-115710200I100000J0D01*
G01*
%LPC*%
D16*
X208168000Y-121788000D03*
D17*
X206168000Y-121788000D03*
X204168000Y-121788000D03*
X202168000Y-121788000D03*
X200168000Y-121788000D03*
X198168000Y-121788000D03*
X196168000Y-121788000D03*
X194168000Y-121788000D03*
D18*
X158496000Y-95968000D03*
X158496000Y-93168000D03*
D19*
X171660000Y-44022000D03*
D20*
X178860000Y-44022000D03*
D21*
X158496000Y-100156000D03*
D22*
X158496000Y-89996000D03*
D23*
X205740000Y-66120000D03*
X205740000Y-63580000D03*
X205740000Y-61040000D03*
X205740000Y-58500000D03*
X205740000Y-55960000D03*
X205740000Y-53420000D03*
X205740000Y-50880000D03*
X205740000Y-48340000D03*
X190500000Y-48340000D03*
X190500000Y-50880000D03*
X190500000Y-53420000D03*
X190500000Y-55960000D03*
X190500000Y-58500000D03*
X190500000Y-61040000D03*
X190500000Y-63580000D03*
X190500000Y-66120000D03*
D24*
X215392000Y-96092000D03*
D25*
X215392000Y-98632000D03*
X215392000Y-101172000D03*
X215392000Y-103712000D03*
D24*
X215392000Y-48340000D03*
D25*
X215392000Y-50880000D03*
X215392000Y-53420000D03*
X215392000Y-55960000D03*
D24*
X215392000Y-72216000D03*
D25*
X215392000Y-74756000D03*
X215392000Y-77296000D03*
X215392000Y-79836000D03*
D26*
X215266651Y-87964000D03*
D27*
X211766651Y-87964000D03*
D28*
X186255000Y-42616000D03*
X186848109Y-41184109D03*
X186848109Y-44047891D03*
X188280000Y-40591000D03*
D29*
X188280000Y-42616000D03*
D28*
X188280000Y-44641000D03*
X189711891Y-41184109D03*
X189711891Y-44047891D03*
X190305000Y-42616000D03*
D23*
X205740000Y-89996000D03*
X205740000Y-87456000D03*
X205740000Y-84916000D03*
X205740000Y-82376000D03*
X205740000Y-79836000D03*
X205740000Y-77296000D03*
X205740000Y-74756000D03*
X205740000Y-72216000D03*
X190500000Y-72216000D03*
X190500000Y-74756000D03*
X190500000Y-77296000D03*
X190500000Y-79836000D03*
X190500000Y-82376000D03*
X190500000Y-84916000D03*
X190500000Y-87456000D03*
X190500000Y-89996000D03*
D28*
X186255000Y-120616000D03*
X186848109Y-119184109D03*
X186848109Y-122047891D03*
X188280000Y-118591000D03*
D29*
X188280000Y-120616000D03*
D28*
X188280000Y-122641000D03*
X189711891Y-119184109D03*
X189711891Y-122047891D03*
X190305000Y-120616000D03*
D26*
X215266651Y-64088000D03*
D27*
X211766651Y-64088000D03*
D30*
X157438000Y-79264000D03*
D31*
X157438000Y-77264000D03*
X157438000Y-75264000D03*
X157438000Y-73264000D03*
D28*
X156255000Y-42616000D03*
X156848109Y-41184109D03*
X156848109Y-44047891D03*
X158280000Y-40591000D03*
D29*
X158280000Y-42616000D03*
D28*
X158280000Y-44641000D03*
X159711891Y-41184109D03*
X159711891Y-44047891D03*
X160305000Y-42616000D03*
D22*
X175191000Y-121616000D03*
D32*
X174891000Y-118586000D03*
X170041000Y-118586000D03*
D22*
X169741000Y-121616000D03*
D33*
X182156000Y-121746000D03*
D34*
X181356000Y-121746000D03*
D35*
X182156000Y-119206000D03*
D27*
X181356000Y-119206000D03*
D36*
X182156000Y-116666000D03*
D37*
X181356000Y-116666000D03*
D35*
X182156000Y-114126000D03*
D27*
X181356000Y-114126000D03*
D35*
X182156000Y-111586000D03*
D27*
X181356000Y-111586000D03*
D35*
X182156000Y-109046000D03*
D27*
X181356000Y-109046000D03*
D35*
X182156000Y-106506000D03*
D27*
X181356000Y-106506000D03*
D36*
X182156000Y-103966000D03*
D37*
X181356000Y-103966000D03*
D35*
X182156000Y-101426000D03*
D27*
X181356000Y-101426000D03*
D35*
X182156000Y-98886000D03*
D27*
X181356000Y-98886000D03*
D35*
X182156000Y-96346000D03*
D27*
X181356000Y-96346000D03*
D35*
X182156000Y-93806000D03*
D27*
X181356000Y-93806000D03*
D36*
X182156000Y-91266000D03*
D37*
X181356000Y-91266000D03*
D35*
X182156000Y-88726000D03*
D27*
X181356000Y-88726000D03*
D35*
X182156000Y-86186000D03*
D27*
X181356000Y-86186000D03*
D35*
X182156000Y-83646000D03*
D27*
X181356000Y-83646000D03*
D35*
X182156000Y-81106000D03*
D27*
X181356000Y-81106000D03*
D36*
X182156000Y-78566000D03*
D37*
X181356000Y-78566000D03*
D35*
X182156000Y-76026000D03*
D27*
X181356000Y-76026000D03*
D35*
X182156000Y-73486000D03*
D27*
X181356000Y-73486000D03*
X163576000Y-73486000D03*
D35*
X162776000Y-73486000D03*
D27*
X163576000Y-76026000D03*
D35*
X162776000Y-76026000D03*
D38*
X163576000Y-78566000D03*
D33*
X162776000Y-78566000D03*
D27*
X163576000Y-81106000D03*
D35*
X162776000Y-81106000D03*
D27*
X163576000Y-83646000D03*
D35*
X162776000Y-83646000D03*
D27*
X163576000Y-86186000D03*
D35*
X162776000Y-86186000D03*
D27*
X163576000Y-88726000D03*
D35*
X162776000Y-88726000D03*
D38*
X163576000Y-91266000D03*
D33*
X162776000Y-91266000D03*
D27*
X163576000Y-93806000D03*
D35*
X162776000Y-93806000D03*
D27*
X163576000Y-96346000D03*
D35*
X162776000Y-96346000D03*
D27*
X163576000Y-98886000D03*
D35*
X162776000Y-98886000D03*
D27*
X163576000Y-101426000D03*
D35*
X162776000Y-101426000D03*
D38*
X163576000Y-103966000D03*
D33*
X162776000Y-103966000D03*
D27*
X163576000Y-106506000D03*
D35*
X162776000Y-106506000D03*
D27*
X163576000Y-109046000D03*
D35*
X162776000Y-109046000D03*
D27*
X163576000Y-111586000D03*
D35*
X162776000Y-111586000D03*
D27*
X163576000Y-114126000D03*
D35*
X162776000Y-114126000D03*
D38*
X163576000Y-116666000D03*
D33*
X162776000Y-116666000D03*
D27*
X163576000Y-119206000D03*
D35*
X162776000Y-119206000D03*
D27*
X163576000Y-121746000D03*
D35*
X162776000Y-121746000D03*
D39*
X177430000Y-62484000D03*
X177430000Y-52484000D03*
X162430000Y-62484000D03*
X162430000Y-52484000D03*
D26*
X215266651Y-111840000D03*
D27*
X211766651Y-111840000D03*
D28*
X212255000Y-42616000D03*
X212848109Y-41184109D03*
X212848109Y-44047891D03*
X214280000Y-40591000D03*
D29*
X214280000Y-42616000D03*
D28*
X214280000Y-44641000D03*
X215711891Y-41184109D03*
X215711891Y-44047891D03*
X216305000Y-42616000D03*
D23*
X205740000Y-113872000D03*
X205740000Y-111332000D03*
X205740000Y-108792000D03*
X205740000Y-106252000D03*
X205740000Y-103712000D03*
X205740000Y-101172000D03*
X205740000Y-98632000D03*
X205740000Y-96092000D03*
X190500000Y-96092000D03*
X190500000Y-98632000D03*
X190500000Y-101172000D03*
X190500000Y-103712000D03*
X190500000Y-106252000D03*
X190500000Y-108792000D03*
X190500000Y-111332000D03*
X190500000Y-113872000D03*
D28*
X212255000Y-120616000D03*
X212848109Y-119184109D03*
X212848109Y-122047891D03*
X214280000Y-118591000D03*
D29*
X214280000Y-120616000D03*
D28*
X214280000Y-122641000D03*
X215711891Y-119184109D03*
X215711891Y-122047891D03*
X216305000Y-120616000D03*
X156255000Y-120616000D03*
X156848109Y-119184109D03*
X156848109Y-122047891D03*
X158280000Y-118591000D03*
D29*
X158280000Y-120616000D03*
D28*
X158280000Y-122641000D03*
X159711891Y-119184109D03*
X159711891Y-122047891D03*
X160305000Y-120616000D03*
%LPD*%
M02*
