G04 #@! TF.GenerationSoftware,KiCad,Pcbnew,9.0.3*
G04 #@! TF.CreationDate,2026-02-04T16:51:12-05:00*
G04 #@! TF.ProjectId,ControlBoard_v1,436f6e74-726f-46c4-926f-6172645f7631,rev?*
G04 #@! TF.SameCoordinates,Original*
G04 #@! TF.FileFunction,Soldermask,Top*
G04 #@! TF.FilePolarity,Negative*
%FSLAX46Y46*%
G04 Gerber Fmt 4.6, Leading zero omitted, Abs format (unit mm)*
G04 Created by KiCad (PCBNEW 9.0.3) date 2026-02-04 16:51:12*
%MOMM*%
%LPD*%
G01*
G04 APERTURE LIST*
G04 Aperture macros list*
%AMRoundRect*
0 Rectangle with rounded corners*
0 $1 Rounding radius*
0 $2 $3 $4 $5 $6 $7 $8 $9 X,Y pos of 4 corners*
0 Add a 4 corners polygon primitive as box body*
4,1,4,$2,$3,$4,$5,$6,$7,$8,$9,$2,$3,0*
0 Add four circle primitives for the rounded corners*
1,1,$1+$1,$2,$3*
1,1,$1+$1,$4,$5*
1,1,$1+$1,$6,$7*
1,1,$1+$1,$8,$9*
0 Add four rect primitives between the rounded corners*
20,1,$1+$1,$2,$3,$4,$5,0*
20,1,$1+$1,$4,$5,$6,$7,0*
20,1,$1+$1,$6,$7,$8,$9,0*
20,1,$1+$1,$8,$9,$2,$3,0*%
%AMFreePoly0*
4,1,37,0.800000,0.796148,0.878414,0.796148,1.032228,0.765552,1.177117,0.705537,1.307515,0.618408,1.418408,0.507515,1.505537,0.377117,1.565552,0.232228,1.596148,0.078414,1.596148,-0.078414,1.565552,-0.232228,1.505537,-0.377117,1.418408,-0.507515,1.307515,-0.618408,1.177117,-0.705537,1.032228,-0.765552,0.878414,-0.796148,0.800000,-0.796148,0.800000,-0.800000,-1.400000,-0.800000,
-1.403843,-0.796157,-1.439018,-0.796157,-1.511114,-0.766294,-1.566294,-0.711114,-1.596157,-0.639018,-1.596157,-0.603843,-1.600000,-0.600000,-1.600000,0.600000,-1.596157,0.603843,-1.596157,0.639018,-1.566294,0.711114,-1.511114,0.766294,-1.439018,0.796157,-1.403843,0.796157,-1.400000,0.800000,0.800000,0.800000,0.800000,0.796148,0.800000,0.796148,$1*%
%AMFreePoly1*
4,1,37,1.403843,0.796157,1.439018,0.796157,1.511114,0.766294,1.566294,0.711114,1.596157,0.639018,1.596157,0.603843,1.600000,0.600000,1.600000,-0.600000,1.596157,-0.603843,1.596157,-0.639018,1.566294,-0.711114,1.511114,-0.766294,1.439018,-0.796157,1.403843,-0.796157,1.400000,-0.800000,-0.800000,-0.800000,-0.800000,-0.796148,-0.878414,-0.796148,-1.032228,-0.765552,-1.177117,-0.705537,
-1.307515,-0.618408,-1.418408,-0.507515,-1.505537,-0.377117,-1.565552,-0.232228,-1.596148,-0.078414,-1.596148,0.078414,-1.565552,0.232228,-1.505537,0.377117,-1.418408,0.507515,-1.307515,0.618408,-1.177117,0.705537,-1.032228,0.765552,-0.878414,0.796148,-0.800000,0.796148,-0.800000,0.800000,1.400000,0.800000,1.403843,0.796157,1.403843,0.796157,$1*%
%AMFreePoly2*
4,1,37,0.603843,0.796157,0.639018,0.796157,0.711114,0.766294,0.766294,0.711114,0.796157,0.639018,0.796157,0.603843,0.800000,0.600000,0.800000,-0.600000,0.796157,-0.603843,0.796157,-0.639018,0.766294,-0.711114,0.711114,-0.766294,0.639018,-0.796157,0.603843,-0.796157,0.600000,-0.800000,0.000000,-0.800000,0.000000,-0.796148,-0.078414,-0.796148,-0.232228,-0.765552,-0.377117,-0.705537,
-0.507515,-0.618408,-0.618408,-0.507515,-0.705537,-0.377117,-0.765552,-0.232228,-0.796148,-0.078414,-0.796148,0.078414,-0.765552,0.232228,-0.705537,0.377117,-0.618408,0.507515,-0.507515,0.618408,-0.377117,0.705537,-0.232228,0.765552,-0.078414,0.796148,0.000000,0.796148,0.000000,0.800000,0.600000,0.800000,0.603843,0.796157,0.603843,0.796157,$1*%
%AMFreePoly3*
4,1,37,0.000000,0.796148,0.078414,0.796148,0.232228,0.765552,0.377117,0.705537,0.507515,0.618408,0.618408,0.507515,0.705537,0.377117,0.765552,0.232228,0.796148,0.078414,0.796148,-0.078414,0.765552,-0.232228,0.705537,-0.377117,0.618408,-0.507515,0.507515,-0.618408,0.377117,-0.705537,0.232228,-0.765552,0.078414,-0.796148,0.000000,-0.796148,0.000000,-0.800000,-0.600000,-0.800000,
-0.603843,-0.796157,-0.639018,-0.796157,-0.711114,-0.766294,-0.766294,-0.711114,-0.796157,-0.639018,-0.796157,-0.603843,-0.800000,-0.600000,-0.800000,0.600000,-0.796157,0.603843,-0.796157,0.639018,-0.766294,0.711114,-0.711114,0.766294,-0.639018,0.796157,-0.603843,0.796157,-0.600000,0.800000,0.000000,0.800000,0.000000,0.796148,0.000000,0.796148,$1*%
G04 Aperture macros list end*
%ADD10RoundRect,0.250000X0.350000X0.625000X-0.350000X0.625000X-0.350000X-0.625000X0.350000X-0.625000X0*%
%ADD11O,1.200000X1.750000*%
%ADD12RoundRect,0.250000X0.300000X-0.300000X0.300000X0.300000X-0.300000X0.300000X-0.300000X-0.300000X0*%
%ADD13RoundRect,1.500000X-1.500000X-1.500000X1.500000X-1.500000X1.500000X1.500000X-1.500000X1.500000X0*%
%ADD14C,6.000000*%
%ADD15RoundRect,0.249999X0.850001X-0.850001X0.850001X0.850001X-0.850001X0.850001X-0.850001X-0.850001X0*%
%ADD16C,2.200000*%
%ADD17C,2.184000*%
%ADD18R,1.700000X1.700000*%
%ADD19C,1.700000*%
%ADD20RoundRect,0.250000X0.550000X0.550000X-0.550000X0.550000X-0.550000X-0.550000X0.550000X-0.550000X0*%
%ADD21C,1.600000*%
%ADD22C,0.800000*%
%ADD23C,5.400000*%
%ADD24RoundRect,0.250000X0.625000X-0.350000X0.625000X0.350000X-0.625000X0.350000X-0.625000X-0.350000X0*%
%ADD25O,1.750000X1.200000*%
%ADD26C,1.850000*%
%ADD27FreePoly0,180.000000*%
%ADD28RoundRect,0.200000X0.600000X0.600000X-0.600000X0.600000X-0.600000X-0.600000X0.600000X-0.600000X0*%
%ADD29RoundRect,0.800000X0.800000X0.000010X-0.800000X0.000010X-0.800000X-0.000010X0.800000X-0.000010X0*%
%ADD30FreePoly1,180.000000*%
%ADD31FreePoly2,180.000000*%
%ADD32FreePoly3,180.000000*%
%ADD33RoundRect,0.500000X0.500000X-0.500000X0.500000X0.500000X-0.500000X0.500000X-0.500000X-0.500000X0*%
G04 APERTURE END LIST*
D10*
X208168000Y-121788000D03*
D11*
X206168000Y-121788000D03*
X204168000Y-121788000D03*
X202168000Y-121788000D03*
X200168000Y-121788000D03*
X198168000Y-121788000D03*
X196168000Y-121788000D03*
X194168000Y-121788000D03*
D12*
X158496000Y-95968000D03*
X158496000Y-93168000D03*
D13*
X171660000Y-44022000D03*
D14*
X178860000Y-44022000D03*
D15*
X158496000Y-100156000D03*
D16*
X158496000Y-89996000D03*
D17*
X205740000Y-66120000D03*
X205740000Y-63580000D03*
X205740000Y-61040000D03*
X205740000Y-58500000D03*
X205740000Y-55960000D03*
X205740000Y-53420000D03*
X205740000Y-50880000D03*
X205740000Y-48340000D03*
X190500000Y-48340000D03*
X190500000Y-50880000D03*
X190500000Y-53420000D03*
X190500000Y-55960000D03*
X190500000Y-58500000D03*
X190500000Y-61040000D03*
X190500000Y-63580000D03*
X190500000Y-66120000D03*
D18*
X215392000Y-96092000D03*
D19*
X215392000Y-98632000D03*
X215392000Y-101172000D03*
X215392000Y-103712000D03*
D18*
X215392000Y-48340000D03*
D19*
X215392000Y-50880000D03*
X215392000Y-53420000D03*
X215392000Y-55960000D03*
D18*
X215392000Y-72216000D03*
D19*
X215392000Y-74756000D03*
X215392000Y-77296000D03*
X215392000Y-79836000D03*
D20*
X215266651Y-87964000D03*
D21*
X211766651Y-87964000D03*
D22*
X186255000Y-42616000D03*
X186848109Y-41184109D03*
X186848109Y-44047891D03*
X188280000Y-40591000D03*
D23*
X188280000Y-42616000D03*
D22*
X188280000Y-44641000D03*
X189711891Y-41184109D03*
X189711891Y-44047891D03*
X190305000Y-42616000D03*
D17*
X205740000Y-89996000D03*
X205740000Y-87456000D03*
X205740000Y-84916000D03*
X205740000Y-82376000D03*
X205740000Y-79836000D03*
X205740000Y-77296000D03*
X205740000Y-74756000D03*
X205740000Y-72216000D03*
X190500000Y-72216000D03*
X190500000Y-74756000D03*
X190500000Y-77296000D03*
X190500000Y-79836000D03*
X190500000Y-82376000D03*
X190500000Y-84916000D03*
X190500000Y-87456000D03*
X190500000Y-89996000D03*
D22*
X186255000Y-120616000D03*
X186848109Y-119184109D03*
X186848109Y-122047891D03*
X188280000Y-118591000D03*
D23*
X188280000Y-120616000D03*
D22*
X188280000Y-122641000D03*
X189711891Y-119184109D03*
X189711891Y-122047891D03*
X190305000Y-120616000D03*
D20*
X215266651Y-64088000D03*
D21*
X211766651Y-64088000D03*
D24*
X157438000Y-79264000D03*
D25*
X157438000Y-77264000D03*
X157438000Y-75264000D03*
X157438000Y-73264000D03*
D22*
X156255000Y-42616000D03*
X156848109Y-41184109D03*
X156848109Y-44047891D03*
X158280000Y-40591000D03*
D23*
X158280000Y-42616000D03*
D22*
X158280000Y-44641000D03*
X159711891Y-41184109D03*
X159711891Y-44047891D03*
X160305000Y-42616000D03*
D16*
X175191000Y-121616000D03*
D26*
X174891000Y-118586000D03*
X170041000Y-118586000D03*
D16*
X169741000Y-121616000D03*
D27*
X182156000Y-121746000D03*
D28*
X181356000Y-121746000D03*
D29*
X182156000Y-119206000D03*
D21*
X181356000Y-119206000D03*
D30*
X182156000Y-116666000D03*
D31*
X181356000Y-116666000D03*
D29*
X182156000Y-114126000D03*
D21*
X181356000Y-114126000D03*
D29*
X182156000Y-111586000D03*
D21*
X181356000Y-111586000D03*
D29*
X182156000Y-109046000D03*
D21*
X181356000Y-109046000D03*
D29*
X182156000Y-106506000D03*
D21*
X181356000Y-106506000D03*
D30*
X182156000Y-103966000D03*
D31*
X181356000Y-103966000D03*
D29*
X182156000Y-101426000D03*
D21*
X181356000Y-101426000D03*
D29*
X182156000Y-98886000D03*
D21*
X181356000Y-98886000D03*
D29*
X182156000Y-96346000D03*
D21*
X181356000Y-96346000D03*
D29*
X182156000Y-93806000D03*
D21*
X181356000Y-93806000D03*
D30*
X182156000Y-91266000D03*
D31*
X181356000Y-91266000D03*
D29*
X182156000Y-88726000D03*
D21*
X181356000Y-88726000D03*
D29*
X182156000Y-86186000D03*
D21*
X181356000Y-86186000D03*
D29*
X182156000Y-83646000D03*
D21*
X181356000Y-83646000D03*
D29*
X182156000Y-81106000D03*
D21*
X181356000Y-81106000D03*
D30*
X182156000Y-78566000D03*
D31*
X181356000Y-78566000D03*
D29*
X182156000Y-76026000D03*
D21*
X181356000Y-76026000D03*
D29*
X182156000Y-73486000D03*
D21*
X181356000Y-73486000D03*
X163576000Y-73486000D03*
D29*
X162776000Y-73486000D03*
D21*
X163576000Y-76026000D03*
D29*
X162776000Y-76026000D03*
D32*
X163576000Y-78566000D03*
D27*
X162776000Y-78566000D03*
D21*
X163576000Y-81106000D03*
D29*
X162776000Y-81106000D03*
D21*
X163576000Y-83646000D03*
D29*
X162776000Y-83646000D03*
D21*
X163576000Y-86186000D03*
D29*
X162776000Y-86186000D03*
D21*
X163576000Y-88726000D03*
D29*
X162776000Y-88726000D03*
D32*
X163576000Y-91266000D03*
D27*
X162776000Y-91266000D03*
D21*
X163576000Y-93806000D03*
D29*
X162776000Y-93806000D03*
D21*
X163576000Y-96346000D03*
D29*
X162776000Y-96346000D03*
D21*
X163576000Y-98886000D03*
D29*
X162776000Y-98886000D03*
D21*
X163576000Y-101426000D03*
D29*
X162776000Y-101426000D03*
D32*
X163576000Y-103966000D03*
D27*
X162776000Y-103966000D03*
D21*
X163576000Y-106506000D03*
D29*
X162776000Y-106506000D03*
D21*
X163576000Y-109046000D03*
D29*
X162776000Y-109046000D03*
D21*
X163576000Y-111586000D03*
D29*
X162776000Y-111586000D03*
D21*
X163576000Y-114126000D03*
D29*
X162776000Y-114126000D03*
D32*
X163576000Y-116666000D03*
D27*
X162776000Y-116666000D03*
D21*
X163576000Y-119206000D03*
D29*
X162776000Y-119206000D03*
D21*
X163576000Y-121746000D03*
D29*
X162776000Y-121746000D03*
D33*
X177430000Y-62484000D03*
X177430000Y-52484000D03*
X162430000Y-62484000D03*
X162430000Y-52484000D03*
D20*
X215266651Y-111840000D03*
D21*
X211766651Y-111840000D03*
D22*
X212255000Y-42616000D03*
X212848109Y-41184109D03*
X212848109Y-44047891D03*
X214280000Y-40591000D03*
D23*
X214280000Y-42616000D03*
D22*
X214280000Y-44641000D03*
X215711891Y-41184109D03*
X215711891Y-44047891D03*
X216305000Y-42616000D03*
D17*
X205740000Y-113872000D03*
X205740000Y-111332000D03*
X205740000Y-108792000D03*
X205740000Y-106252000D03*
X205740000Y-103712000D03*
X205740000Y-101172000D03*
X205740000Y-98632000D03*
X205740000Y-96092000D03*
X190500000Y-96092000D03*
X190500000Y-98632000D03*
X190500000Y-101172000D03*
X190500000Y-103712000D03*
X190500000Y-106252000D03*
X190500000Y-108792000D03*
X190500000Y-111332000D03*
X190500000Y-113872000D03*
D22*
X212255000Y-120616000D03*
X212848109Y-119184109D03*
X212848109Y-122047891D03*
X214280000Y-118591000D03*
D23*
X214280000Y-120616000D03*
D22*
X214280000Y-122641000D03*
X215711891Y-119184109D03*
X215711891Y-122047891D03*
X216305000Y-120616000D03*
X156255000Y-120616000D03*
X156848109Y-119184109D03*
X156848109Y-122047891D03*
X158280000Y-118591000D03*
D23*
X158280000Y-120616000D03*
D22*
X158280000Y-122641000D03*
X159711891Y-119184109D03*
X159711891Y-122047891D03*
X160305000Y-120616000D03*
M02*
